<?xml version="1.0" standalone="no"?> <!DOCTYPE svg PUBLIC "-//W3C//DTD SVG 20010904//EN" "http://www.w3.org/TR/2001/REC-SVG-20010904/DTD/svg10.dtd"> <svg version="1.0" xmlns="http://www.w3.org/2000/svg" width="360.000000pt" height="360.000000pt" viewBox="0 0 360.000000 360.000000" preserveAspectRatio="xMidYMid meet"> <g transform="translate(0.000000,360.000000) scale(0.100000,-0.100000)" fill="#ffffff" stroke="none"> <path d="M232 3540 c-1 -36 -5 -88 -8 -117 l-7 -52 -111 -4 -111 -3 123 -2 122 -2 0 -120 0 -120 -122 -2 -123 -2 111 -3 111 -4 7 -54 c3 -30 3 -80 0 -110 l-7 -54 -111 -4 -111 -3 123 -2 122 -2 0 -120 0 -120 -122 -2 -123 -2 111 -3 111 -4 7 -54 c3 -30 3 -80 0 -110 l-7 -54 -111 -4 -111 -3 123 -2 122 -2 0 -120 0 -120 -122 -2 -123 -2 111 -3 111 -4 7 -54 c3 -30 3 -80 0 -110 l-7 -54 -111 -4 -111 -3 123 -2 122 -2 0 -120 0 -120 -122 -2 -123 -2 111 -3 111 -4 7 -54 c3 -30 3 -80 0 -110 l-7 -54 -111 -4 -111 -3 123 -2 122 -2 0 -120 0 -120 -122 -2 -123 -2 111 -3 111 -4 7 -54 c3 -30 3 -80 0 -110 l-7 -54 -111 -4 -111 -3 123 -2 122 -2 0 -89 c0 -50 3 -92 8 -94 4 -3 7 35 6 84 l-1 89 38 0 c57 0 69 8 69 45 0 19 5 37 10 40 6 3 10 16 10 28 0 21 -1 20 -14 -4 -7 -14 -16 -42 -20 -62 -7 -37 -7 -37 -56 -37 l-50 0 0 120 0 120 78 2 77 2 -72 3 -73 4 0 109 0 109 38 4 37 4 -42 1 -43 2 0 120 0 120 68 2 67 2 -62 3 -63 4 0 109 0 110 104 0 104 0 10 -82 9 -83 2 88 1 87 78 2 77 2 -72 3 -73 4 0 110 0 110 100 -2 c55 -2 103 0 106 4 4 4 -43 7 -104 7 l-112 0 0 120 0 120 118 2 117 2 -112 3 -113 4 0 109 0 110 114 0 c63 0 117 3 119 8 3 4 -51 6 -119 4 l-124 -3 0 120 0 121 120 0 120 0 2 -82 2 -83 3 78 4 77 110 0 109 0 -1 -99 c0 -54 -4 -103 -8 -109 -3 -5 -20 -12 -36 -15 -24 -3 -22 -4 13 -6 23 0 42 -4 42 -8 0 -5 52 -6 115 -5 l116 4 -2 -111 -1 -110 -67 -3 -66 -3 75 -5 75 -5 -3 123 -3 122 120 0 121 0 2 -107 2 -108 3 103 4 102 110 0 110 0 -3 -107 -3 -108 -35 -6 -35 -6 43 -2 42 -1 2 -77 2 -78 3 73 4 72 109 0 110 0 0 -111 0 -110 -80 2 c-44 1 -83 -1 -87 -5 -3 -3 35 -6 85 -6 l92 0 2 -47 1 -48 4 43 4 42 103 0 103 0 7 -52 c8 -72 8 -116 -2 -120 -4 -1 -2 -14 5 -28 12 -21 14 -22 12 -5 -1 11 -1 64 0 118 l1 97 120 0 120 0 0 -120 0 -120 -122 -2 -123 -2 117 -3 117 -4 4 -82 3 -82 2 88 2 87 120 0 120 0 0 -120 0 -120 -49 0 c-35 0 -51 -4 -55 -16 -7 -18 0 -34 16 -34 7 0 7 5 -1 14 -14 16 4 26 49 26 26 0 29 -4 33 -37 l4 -38 1 43 2 42 120 0 120 0 0 -120 0 -120 -42 -2 -43 -1 37 -4 c24 -3 38 -10 41 -21 3 -12 5 -11 6 6 1 22 4 22 121 22 l120 0 2 -77 2 -78 3 73 4 72 103 0 103 0 7 -55 c3 -30 3 -80 0 -110 l-7 -54 -86 -4 -86 -3 98 -2 97 -2 0 -120 0 -120 -52 -2 -53 -1 45 -6 45 -6 0 -105 0 -105 -110 -6 -110 -5 118 -2 117 -2 0 -120 0 -120 -102 0 c-56 0 -99 -3 -95 -6 3 -4 44 -6 90 -5 l84 2 7 -56 c3 -30 3 -80 0 -110 l-7 -54 -66 -4 -66 -3 78 -2 77 -2 2 -122 2 -123 3 117 4 117 117 4 117 3 -122 2 -123 2 0 120 0 120 123 2 122 2 -117 3 -118 4 0 109 0 109 118 4 117 3 -122 2 -123 2 0 120 0 120 123 2 122 2 -117 3 -118 4 0 109 0 109 118 4 117 3 -122 2 -123 2 0 120 0 120 123 2 122 2 -117 3 -118 4 0 109 0 109 118 4 117 3 -122 2 -123 2 0 120 0 120 123 2 122 2 -117 3 -118 4 0 109 0 109 118 4 117 3 -122 2 -123 2 0 120 0 120 123 2 122 2 -117 3 -118 4 0 109 0 109 118 4 117 3 -122 2 -123 2 0 120 0 120 123 2 122 2 -117 3 -118 4 0 109 0 109 118 4 117 3 -122 2 -123 2 0 120 0 120 123 2 122 2 -117 3 -117 4 -4 117 -3 117 -2 -122 -2 -123 -120 0 -120 0 -2 123 c-1 67 -3 102 -5 77 -1 -25 -5 -78 -9 -117 l-6 -73 -104 0 -103 0 -4 118 -3 117 -2 -122 -2 -123 -120 0 -120 0 -2 123 c-1 67 -3 102 -5 77 -1 -25 -5 -78 -9 -117 l-6 -73 -104 0 -103 0 -4 118 -3 117 -2 -122 -2 -123 -120 0 -120 0 -2 123 c-1 67 -3 102 -5 77 -1 -25 -5 -78 -9 -117 l-6 -73 -104 0 -103 0 -4 118 -3 117 -2 -122 -2 -123 -120 0 -120 0 -2 123 c-1 67 -3 102 -5 77 -1 -25 -5 -78 -9 -117 l-6 -73 -104 0 -103 0 -4 118 -3 117 -2 -122 -2 -123 -120 0 -120 0 -2 123 c-1 67 -3 102 -5 77 -1 -25 -5 -78 -9 -117 l-6 -73 -104 0 -103 0 -4 118 -3 117 -2 -122 -2 -123 -120 0 -120 0 -2 123 c-1 67 -3 102 -5 77 -1 -25 -5 -78 -9 -117 l-6 -73 -104 0 -103 0 -4 118 -3 117 -2 -122 -2 -123 -120 0 -119 0 -4 123 c-1 67 -4 93 -5 57z m488 -300 l0 -120 -120 0 -120 0 0 120 0 120 120 0 120 0 0 -120z m480 0 l0 -120 -120 0 -120 0 0 120 0 120 120 0 120 0 0 -120z m480 0 l0 -120 -120 0 -120 0 0 120 0 120 120 0 120 0 0 -120z m480 0 l0 -120 -120 0 -120 0 0 120 0 120 120 0 120 0 0 -120z m480 0 l0 -120 -120 0 -120 0 0 120 0 120 120 0 120 0 0 -120z m480 0 l0 -120 -120 0 -120 0 0 120 0 120 120 0 120 0 0 -120z m-2656 55 c3 -30 3 -80 0 -110 l-7 -55 -103 0 -104 0 0 110 0 110 104 0 103 0 7 -55z m480 0 c3 -30 3 -80 0 -110 l-7 -55 -103 0 -104 0 0 110 0 110 104 0 103 0 7 -55z m480 0 c3 -30 3 -80 0 -110 l-7 -55 -103 0 -104 0 0 110 0 110 104 0 103 0 7 -55z m480 0 c3 -30 3 -80 0 -110 l-7 -55 -103 0 -104 0 0 110 0 110 104 0 103 0 7 -55z m480 0 c3 -30 3 -80 0 -110 l-7 -55 -103 0 -104 0 0 110 0 110 104 0 103 0 7 -55z m480 0 c3 -30 3 -80 0 -110 l-7 -55 -103 0 -104 0 0 110 0 110 104 0 103 0 7 -55z m480 0 c3 -30 3 -80 0 -110 l-7 -55 -103 0 -104 0 0 110 0 110 104 0 103 0 7 -55z m-2864 -295 l0 -120 -120 0 -120 0 0 120 0 120 120 0 120 0 0 -120z m480 0 l0 -120 -120 0 -120 0 0 120 0 120 120 0 120 0 0 -120z m480 0 l0 -120 -120 0 -120 0 0 120 0 120 120 0 120 0 0 -120z m480 0 l0 -120 -120 0 -120 0 0 120 0 120 120 0 120 0 0 -120z m480 0 l0 -120 -120 0 -120 0 0 120 0 120 120 0 120 0 0 -120z m480 0 l0 -120 -120 0 -120 0 0 120 0 120 120 0 120 0 0 -120z m480 0 l0 -120 -120 0 -120 0 0 120 0 120 120 0 120 0 0 -120z m-2656 55 c3 -30 3 -80 0 -110 l-7 -55 -103 0 -104 0 0 110 0 110 104 0 103 0 7 -55z m480 0 c3 -30 3 -80 0 -110 l-7 -55 -103 0 -104 0 0 110 0 110 104 0 103 0 7 -55z m480 0 c3 -30 3 -80 0 -110 l-7 -55 -103 0 -104 0 0 110 0 110 104 0 103 0 7 -55z m480 0 c3 -30 3 -80 0 -110 l-7 -55 -103 0 -104 0 0 110 0 110 104 0 103 0 7 -55z m480 0 c3 -30 3 -80 0 -110 l-7 -55 -103 0 -104 0 0 110 0 110 104 0 103 0 7 -55z m480 0 c3 -30 3 -80 0 -110 l-7 -55 -103 0 -104 0 0 110 0 110 104 0 103 0 7 -55z m-1904 -295 l0 -120 -120 0 -120 0 0 120 0 120 120 0 120 0 0 -120z m480 0 l0 -120 -120 0 -120 0 0 120 0 120 120 0 120 0 0 -120z m480 0 l0 -120 -120 0 -120 0 0 120 0 120 120 0 120 0 0 -120z m480 0 l0 -120 -120 0 -120 0 0 120 0 120 120 0 120 0 0 -120z m480 0 l0 -120 -120 0 -120 0 0 120 0 120 120 0 120 0 0 -120z m-2656 55 c3 -30 3 -80 0 -110 l-7 -55 -103 0 -104 0 0 110 0 110 104 0 103 0 7 -55z m960 0 c3 -30 3 -80 0 -110 l-7 -55 -103 0 -104 0 0 110 0 110 104 0 103 0 7 -55z m480 0 c3 -30 3 -80 0 -110 l-7 -55 -103 0 -104 0 0 110 0 110 104 0 103 0 7 -55z m480 0 c3 -30 3 -80 0 -110 l-7 -55 -103 0 -104 0 0 110 0 110 104 0 103 0 7 -55z m480 0 c3 -30 3 -80 0 -110 l-7 -55 -103 0 -104 0 0 110 0 110 104 0 103 0 7 -55z m480 0 c3 -30 3 -80 0 -110 l-7 -55 -103 0 -104 0 0 110 0 110 104 0 103 0 7 -55z m-2864 -295 l0 -120 -120 0 -120 0 0 120 0 120 120 0 120 0 0 -120z m1440 0 l0 -120 -120 0 -120 0 0 120 0 120 120 0 120 0 0 -120z m480 0 l0 -120 -120 0 -120 0 0 120 0 120 120 0 120 0 0 -120z m480 0 l0 -120 -120 0 -120 0 0 120 0 120 120 0 120 0 0 -120z m480 0 l0 -120 -120 0 -120 0 0 120 0 120 120 0 120 0 0 -120z m-1216 55 c3 -30 3 -80 0 -110 l-7 -55 -103 0 -104 0 0 110 0 110 104 0 103 0 7 -55z m480 0 c3 -30 3 -80 0 -110 l-7 -55 -103 0 -104 0 0 110 0 110 104 0 103 0 7 -55z m480 0 c3 -30 3 -80 0 -110 l-7 -55 -103 0 -104 0 0 110 0 110 104 0 103 0 7 -55z m-944 -295 l0 -120 -120 0 -120 0 0 120 0 120 120 0 120 0 0 -120z m480 0 l0 -120 -120 0 -120 0 0 120 0 120 120 0 120 0 0 -120z m480 0 l0 -120 -120 0 -120 0 0 120 0 120 120 0 120 0 0 -120z m-2656 55 c3 -30 3 -80 0 -110 l-7 -55 -103 0 -104 0 0 110 0 110 104 0 103 0 7 -55z m1920 0 c3 -30 3 -80 0 -110 l-7 -55 -103 0 -104 0 0 110 0 110 104 0 103 0 7 -55z m480 0 c3 -30 3 -80 0 -110 l-7 -55 -103 0 -104 0 0 110 0 110 104 0 103 0 7 -55z m480 0 c3 -30 3 -80 0 -110 l-7 -55 -103 0 -104 0 0 110 0 110 104 0 103 0 7 -55z m-2864 -295 l0 -120 -120 0 -120 0 0 120 0 120 120 0 120 0 0 -120z m2400 0 l0 -120 -120 0 -120 0 0 120 0 120 120 0 120 0 0 -120z m480 0 l0 -120 -120 0 -120 0 0 120 0 120 120 0 120 0 0 -120z m-736 55 c3 -30 3 -80 0 -110 l-7 -55 -103 0 -104 0 0 110 0 110 104 0 103 0 7 -55z m480 0 c3 -30 3 -80 0 -110 l-7 -55 -103 0 -104 0 0 110 0 110 104 0 103 0 7 -55z m16 -295 l0 -120 -120 0 -120 0 0 120 0 120 120 0 120 0 0 -120z m-256 55 c3 -30 3 -80 0 -110 l-7 -55 -103 0 -104 0 0 110 0 110 104 0 103 0 7 -55z m480 0 c3 -30 3 -80 0 -110 l-7 -55 -103 0 -104 0 0 110 0 110 104 0 103 0 7 -55z m16 -295 l0 -120 -120 0 -120 0 0 120 0 120 120 0 120 0 0 -120z m-256 55 c3 -30 3 -80 0 -110 l-7 -55 -103 0 -104 0 0 110 0 110 104 0 103 0 7 -55z"/> <path d="M721 2683 c0 -25 1 -26 9 -8 12 27 12 35 0 35 -5 0 -10 -12 -9 -27z"/> <path d="M740 2490 c0 -99 4 -150 11 -150 5 0 8 -4 5 -8 -3 -5 24 -24 59 -43 51 -27 67 -31 77 -21 9 9 9 12 -3 13 -7 1 0 5 16 8 29 7 29 7 -12 12 -33 3 -39 2 -31 -8 15 -18 4 -16 -30 5 -18 11 -27 24 -25 37 3 19 3 19 -5 1 -6 -14 -11 -16 -16 -8 -4 7 -4 12 1 12 4 0 3 4 -4 8 -16 10 -28 62 -14 62 6 0 11 -4 11 -10 0 -5 7 -10 16 -10 9 0 23 -8 30 -17 13 -17 13 -17 14 0 0 23 16 22 33 -3 8 -11 16 -17 20 -14 3 3 15 1 26 -6 12 -6 21 -7 21 -2 0 16 -29 35 -44 29 -8 -3 -16 2 -19 14 -4 15 -11 18 -34 13 -22 -4 -35 0 -56 22 -27 27 -35 58 -18 69 13 8 59 -15 66 -33 8 -23 -5 -29 -19 -9 -16 21 -26 22 -26 2 0 -8 12 -21 28 -29 37 -19 54 -2 35 35 -13 26 -42 57 -50 52 -1 -2 -12 -3 -23 -3 -22 0 -28 35 -7 43 10 4 10 6 0 6 -7 1 -13 14 -13 30 0 24 3 28 20 24 24 -6 27 12 4 21 -43 16 -44 13 -44 -144z"/> <path d="M800 2602 c0 -10 44 -32 63 -32 7 0 23 -9 37 -20 14 -11 33 -20 43 -20 14 0 17 -5 12 -22 -5 -17 -4 -19 3 -9 9 12 14 12 36 -3 25 -16 26 -20 26 -121 0 -63 4 -105 10 -105 17 0 13 202 -6 228 -8 12 -57 42 -108 67 -94 45 -116 52 -116 37z"/> <path d="M775 2590 c3 -5 8 -10 11 -10 2 0 4 5 4 10 0 6 -5 10 -11 10 -5 0 -7 -4 -4 -10z"/> <path d="M860 2536 c0 -2 7 -7 16 -10 8 -3 12 -2 9 4 -6 10 -25 14 -25 6z"/> <path d="M890 2465 c-5 -48 18 -80 53 -71 12 3 17 -2 17 -16 0 -11 5 -16 10 -13 6 4 17 1 25 -5 12 -10 15 -9 15 4 0 10 -9 16 -22 16 -22 1 -22 1 -5 14 10 8 14 17 8 20 -5 3 -11 0 -14 -6 -3 -9 -11 -6 -26 10 -24 25 -40 30 -21 7 15 -18 10 -27 -9 -16 -7 5 -17 24 -21 42 -5 22 -9 27 -10 14z"/> <path d="M1340 2452 c0 -5 27 -24 61 -41 33 -18 73 -46 90 -62 30 -30 32 -38 34 -209 0 -25 4 -51 8 -57 5 -8 3 -13 -3 -13 -20 0 0 -20 41 -41 24 -12 37 -24 33 -31 -4 -7 -3 -8 4 -4 6 4 30 -5 53 -19 22 -15 48 -24 56 -21 23 9 40 -6 17 -16 -13 -6 -11 -7 10 -3 24 5 27 4 18 -7 -14 -18 -5 -31 36 -52 44 -23 40 -5 -5 23 -21 12 -30 20 -20 17 11 -3 16 -2 12 4 -3 6 2 10 12 10 10 0 4 7 -17 18 -19 10 -71 40 -115 66 -43 27 -73 41 -66 32 7 -9 10 -16 5 -16 -11 0 -62 39 -53 40 4 0 3 16 -1 34 -4 19 -6 37 -3 40 3 2 35 -15 71 -38 67 -42 142 -86 195 -113 15 -8 27 -18 27 -22 0 -4 7 -8 15 -8 16 0 19 15 7 33 -13 20 -170 106 -181 99 -6 -3 -9 0 -6 7 3 8 -16 23 -47 38 -90 44 -96 52 -96 120 1 34 -5 71 -11 84 -7 13 -47 43 -89 67 -93 53 -92 53 -92 41z m333 -453 c26 -17 47 -33 47 -35 0 -9 -19 -3 -32 10 -8 7 -28 21 -46 30 -18 9 -32 19 -32 21 0 11 19 3 63 -26z"/> <path d="M1001 2434 c0 -11 3 -14 6 -6 3 7 2 16 -1 19 -3 4 -6 -2 -5 -13z"/> <path d="M1356 2402 c-3 -4 4 -9 15 -9 23 -2 25 3 4 10 -8 4 -16 3 -19 -1z"/> <path d="M1503 2403 c15 -2 39 -2 55 0 15 2 2 4 -28 4 -30 0 -43 -2 -27 -4z"/> <path d="M1228 2383 c7 -3 16 -2 19 1 4 3 -2 6 -13 5 -11 0 -14 -3 -6 -6z"/> <path d="M1203 2356 c1 -17 9 -31 17 -33 10 -3 11 -2 4 4 -7 4 -14 19 -17 33 -4 22 -5 21 -4 -4z"/> <path d="M1260 2350 c-12 -7 -12 -12 -2 -22 9 -9 12 -9 12 2 0 10 5 9 19 -4 15 -13 20 -14 24 -4 4 10 9 9 17 -5 6 -9 23 -28 38 -42 20 -19 23 -27 14 -35 -6 -6 -10 -7 -7 -4 2 3 -9 20 -25 37 -29 31 -29 31 -50 12 -11 -10 -18 -25 -15 -33 3 -9 8 -38 11 -66 6 -57 18 -68 77 -73 41 -4 50 13 21 41 -21 22 -27 20 -14 -4 10 -18 8 -19 -22 -13 -39 7 -34 3 -43 33 -7 22 -6 23 9 11 21 -18 20 -9 -5 34 -20 33 -20 65 0 65 5 0 16 -15 25 -33 11 -25 13 -42 6 -65 -5 -18 -5 -32 0 -32 9 0 23 39 20 60 -2 12 3 11 19 -4 12 -11 20 -26 19 -34 -2 -8 3 -17 10 -19 18 -7 15 46 -3 53 -16 7 -21 34 -6 34 5 0 4 11 -2 25 -7 14 -20 25 -29 25 -12 0 -18 8 -18 24 0 25 -30 44 -49 31 -5 -3 -12 -1 -16 5 -8 12 -16 12 -35 0z"/> <path d="M1382 2343 c2 -10 11 -19 21 -21 16 -3 17 -1 5 17 -16 25 -31 27 -26 4z"/> <path d="M1454 2341 c20 -22 26 -25 26 -13 0 4 -10 13 -22 21 -23 14 -23 14 -4 -8z"/> <path d="M722 2311 c0 -21 6 -34 18 -41 29 -16 37 -12 12 6 -13 9 -21 22 -19 28 3 7 2 18 -2 25 -5 7 -8 0 -9 -18z"/> <path d="M888 2333 c7 -3 16 -2 19 1 4 3 -2 6 -13 5 -11 0 -14 -3 -6 -6z"/> <path d="M940 2324 c-18 -10 -20 -14 -8 -14 9 0 20 5 23 10 4 6 10 8 15 5 5 -3 11 -1 15 5 9 14 -15 11 -45 -6z"/> <path d="M1253 2312 c-17 -2 -23 -10 -23 -28 0 -15 6 -24 15 -24 16 0 21 -25 6 -34 -5 -4 -4 -16 2 -30 9 -18 15 -22 24 -14 15 13 17 32 3 23 -7 -4 -9 3 -6 19 3 15 -1 32 -10 40 -18 19 -18 30 1 23 16 -7 32 11 19 22 -5 4 -19 5 -31 3z"/> <path d="M1201 2294 c0 -11 3 -14 6 -6 3 7 2 16 -1 19 -3 4 -6 -2 -5 -13z"/> <path d="M1425 2290 c-4 -6 -2 -17 4 -23 5 -7 7 -24 4 -37 -4 -13 -2 -21 3 -17 6 3 16 -9 24 -26 14 -30 15 -31 18 -9 2 14 -4 29 -15 37 -14 11 -16 17 -7 32 9 14 9 23 -1 36 -14 20 -21 21 -30 7z m19 -16 c3 -8 2 -12 -4 -9 -6 3 -10 10 -10 16 0 14 7 11 14 -7z"/> <path d="M946 2281 c-19 -7 -19 -8 0 -13 13 -3 21 0 21 8 0 8 -1 14 -1 13 -1 0 -10 -4 -20 -8z"/> <path d="M988 2283 c7 -3 16 -2 19 1 4 3 -2 6 -13 5 -11 0 -14 -3 -6 -6z"/> <path d="M1200 2265 c0 -5 5 -17 10 -25 5 -8 10 -10 10 -5 0 6 -5 17 -10 25 -5 8 -10 11 -10 5z"/> <path d="M723 2244 c0 -7 6 -15 14 -18 7 -3 13 1 13 8 0 8 -6 16 -13 19 -8 3 -14 -1 -14 -9z"/> <path d="M813 2223 c-13 -12 -23 -27 -23 -33 0 -5 -11 -10 -25 -10 -27 0 -43 -35 -31 -66 4 -10 -1 -25 -9 -35 -15 -16 -15 -20 -1 -48 10 -19 12 -32 6 -36 -18 -11 -11 -64 10 -77 15 -10 20 -24 20 -55 0 -32 5 -46 20 -55 29 -19 24 -28 -15 -28 -27 0 -44 -9 -79 -42 -53 -52 -70 -103 -86 -268 -7 -63 -15 -134 -20 -157 l-8 -43 42 -1 c48 -1 81 -12 158 -57 108 -63 140 -100 208 -239 35 -73 77 -145 98 -166 45 -47 120 -87 164 -87 31 0 91 32 126 67 7 7 33 13 57 13 59 0 85 -32 85 -104 l0 -51 -131 -75 c-285 -163 -325 -177 -483 -168 -93 6 -161 28 -261 85 -38 22 -115 66 -170 97 -104 60 -175 123 -176 160 0 11 -5 30 -10 41 -7 14 -8 6 -4 -30 6 -57 36 -121 72 -152 l25 -22 -65 -191 -64 -190 38 0 c24 0 39 5 39 12 0 11 53 160 95 268 7 19 16 43 19 53 5 16 11 14 58 -16 114 -74 215 -129 256 -140 l44 -12 -6 -45 c-4 -25 -9 -62 -12 -82 -6 -38 -6 -38 29 -38 l36 0 11 73 12 74 47 -5 c81 -7 228 31 306 80 11 7 32 21 46 30 l26 17 13 -42 c8 -23 14 -46 14 -50 1 -5 10 -15 20 -23 11 -7 16 -17 11 -21 -4 -5 -10 -2 -12 5 -3 6 -13 12 -22 12 -23 0 -73 39 -66 51 4 5 -1 9 -10 9 -13 0 -14 -4 -4 -22 16 -30 49 -56 81 -63 22 -5 29 -15 38 -53 6 -26 12 -53 12 -59 1 -8 16 -13 40 -13 21 0 38 1 38 3 0 1 -7 20 -15 42 -23 64 -20 71 40 99 30 14 55 30 55 35 0 15 -3 14 -56 -14 -55 -30 -73 -31 -72 -7 1 9 -7 46 -16 81 -18 66 -18 67 13 85 10 6 42 24 70 40 35 20 51 36 51 49 0 11 7 28 15 37 14 16 14 24 -1 83 -15 62 -19 67 -53 79 -49 17 -91 16 -102 -2 -4 -8 -9 -11 -9 -6 0 5 -10 0 -22 -11 -41 -35 -98 -64 -102 -50 -25 81 -33 200 -21 325 7 80 7 83 -18 102 -14 11 -36 36 -48 56 -12 20 -32 46 -45 59 -13 13 -26 35 -30 49 -3 14 -10 26 -14 26 -4 0 -13 13 -20 30 -14 34 -45 66 -34 34 4 -10 16 -31 26 -46 10 -14 18 -30 18 -35 0 -5 16 -32 35 -62 19 -29 35 -58 35 -64 1 -16 25 -47 37 -47 14 0 43 -34 43 -51 0 -8 -11 -1 -25 16 -32 39 -32 21 0 -21 24 -31 25 -38 19 -116 -4 -51 -2 -105 5 -138 9 -42 9 -55 -1 -62 -10 -6 -10 -8 0 -8 6 0 12 -11 12 -25 l0 -25 -41 20 c-66 34 -158 151 -145 186 3 8 2 13 -3 10 -4 -3 -17 14 -27 37 -10 23 -22 45 -27 48 -5 4 -10 18 -10 32 -1 14 -6 23 -11 19 -5 -3 -6 2 -3 12 4 9 3 15 -2 12 -4 -3 -17 1 -27 9 -12 9 -14 14 -6 15 7 0 10 5 6 11 -5 8 -8 8 -13 0 -5 -7 -16 -2 -32 15 -19 21 -20 26 -6 21 11 -4 16 -3 12 4 -4 6 -13 8 -20 5 -20 -7 -66 17 -60 32 3 7 1 11 -4 7 -5 -3 -32 6 -60 20 -28 15 -70 27 -92 28 l-41 1 7 61 c4 33 9 85 11 115 8 95 23 171 42 208 24 46 79 90 117 94 29 3 30 1 31 -39 2 -34 -1 -41 -14 -36 -11 5 -9 0 5 -14 11 -11 25 -28 30 -37 12 -21 114 -40 106 -19 -5 13 10 17 57 15 l25 -1 -25 11 c-33 16 -33 15 -26 26 8 13 85 -26 130 -66 27 -23 36 -38 31 -51 -3 -11 -1 -22 4 -26 7 -3 8 0 5 9 -3 9 -4 16 0 16 7 0 46 -84 46 -99 0 -6 4 -11 8 -11 4 0 13 -15 20 -33 14 -40 15 -58 2 -37 -8 12 -10 11 -10 -8 0 -18 -5 -22 -22 -19 -13 2 -17 2 -9 0 8 -3 2 -12 -18 -24 -17 -10 -31 -23 -31 -29 0 -15 7 -13 43 12 77 54 94 82 63 107 -8 6 -19 32 -25 57 -20 80 -85 156 -179 209 -35 19 -66 35 -68 35 -2 0 -4 -8 -4 -18 0 -31 -29 -62 -59 -62 -34 0 -58 25 -65 67 -5 27 -3 32 16 35 13 2 32 17 43 35 11 18 25 32 32 33 18 0 35 76 28 121 -8 48 6 69 45 69 22 0 29 6 35 28 4 15 15 35 25 45 11 9 17 24 14 32 -5 12 4 14 44 14 37 -1 58 4 81 20 35 25 35 26 20 70 -12 33 -28 41 -94 40 -22 0 -94 2 -160 4 -113 3 -121 1 -142 -20z m299 -6 c26 -1 50 -6 54 -10 7 -7 -13 -9 -71 -9 l-30 1 30 -8 c17 -5 22 -9 12 -10 -10 0 -15 -6 -12 -12 5 -7 13 -5 26 7 18 17 49 13 49 -6 0 -5 5 -10 11 -10 6 0 9 9 6 20 -3 11 -1 20 5 20 5 0 8 -10 6 -22 -2 -15 -11 -24 -25 -26 -13 -2 -23 -8 -23 -13 0 -5 -22 -9 -50 -9 -37 0 -50 -4 -51 -15 -3 -36 -5 -40 -21 -39 -9 1 -14 -4 -12 -11 6 -15 -13 -65 -24 -65 -5 0 -14 10 -21 23 l-11 22 6 -22 c4 -17 1 -23 -10 -23 -8 0 -20 -9 -26 -20 -6 -11 -16 -17 -25 -14 -8 4 -15 1 -15 -5 0 -6 5 -10 11 -8 16 3 31 -51 24 -88 -6 -35 -34 -63 -55 -57 -12 3 -12 1 -2 -6 15 -10 7 -38 -15 -46 -17 -7 -41 14 -36 31 2 6 -7 22 -20 35 -25 25 -27 67 -6 94 6 7 5 21 -1 35 -10 23 -10 23 -5 -3 7 -35 -7 -43 -31 -17 -15 16 -16 25 -8 48 6 15 7 37 3 49 -5 12 -4 34 1 48 7 17 6 32 -1 46 -10 18 -9 20 6 14 16 -6 16 -4 4 10 -12 15 -11 16 10 9 18 -5 22 -4 16 6 -6 9 -2 11 13 7 15 -4 19 -2 15 9 -3 7 2 22 11 32 15 17 30 19 129 15 62 -2 133 -5 159 -7z m-702 -1625 c8 -2 35 -16 60 -31 162 -100 281 -160 318 -161 6 0 12 -5 12 -11 0 -11 -38 -3 -54 12 -6 5 -17 9 -25 9 -9 0 -53 23 -99 50 -46 28 -85 50 -88 50 -3 0 -22 11 -42 25 -40 27 -72 33 -72 13 0 -9 -4 -8 -11 2 -8 12 -9 9 -5 -13 4 -16 1 -39 -8 -55 -8 -15 -22 -49 -31 -77 -9 -27 -19 -57 -22 -65 -3 -8 -7 -19 -8 -25 -6 -27 -49 -107 -53 -97 -6 18 18 93 28 87 6 -4 10 1 10 10 0 10 -4 13 -12 8 -7 -4 -5 5 5 20 9 14 17 33 17 42 0 8 15 54 34 100 33 85 33 86 15 109 -24 30 -25 45 -1 20 9 -10 24 -20 32 -22z m1075 8 c-3 -5 -11 -10 -16 -10 -6 0 -7 5 -4 10 3 6 11 10 16 10 6 0 7 -4 4 -10z m-35 -14 c0 -2 -22 -18 -50 -35 -27 -17 -50 -37 -50 -45 0 -8 -8 -20 -17 -26 -16 -10 -16 -11 -1 -6 13 4 19 -4 26 -37 5 -23 5 -46 0 -51 -4 -6 -8 -15 -8 -20 0 -6 5 -4 10 4 8 13 10 13 10 -2 0 -9 6 -23 13 -30 6 -7 13 -26 13 -43 1 -16 4 -40 7 -52 3 -13 2 -23 -3 -23 -15 0 -41 63 -34 83 4 14 3 17 -6 12 -9 -5 -10 -2 -6 13 4 11 2 23 -4 27 -5 3 -10 15 -10 26 0 10 -4 19 -10 19 -5 0 -10 12 -10 27 0 14 -7 35 -16 44 -16 18 -18 18 -43 0 -42 -30 -143 -78 -191 -91 -25 -7 -81 -14 -125 -16 -44 -2 -93 -5 -110 -6 -20 -2 -30 2 -30 10 0 11 29 14 130 16 121 3 135 5 204 35 41 17 82 38 91 46 9 8 19 15 23 15 3 0 48 25 99 55 97 57 98 58 98 51z m-612 -269 c6 -32 -18 -97 -36 -96 -12 0 -13 2 -3 6 8 3 9 8 3 12 -14 8 8 103 22 98 6 -2 12 -11 14 -20z"/> <path d="M843 2189 c0 -34 3 -36 16 -11 6 11 5 21 -3 28 -10 9 -13 5 -13 -17z"/> <path d="M1040 2165 c0 -8 2 -15 4 -15 2 0 6 7 10 15 3 8 1 15 -4 15 -6 0 -10 -7 -10 -15z"/> <path d="M770 2105 c0 -8 4 -15 10 -15 5 0 7 7 4 15 -4 8 -8 15 -10 15 -2 0 -4 -7 -4 -15z"/> <path d="M772 2060 c7 -10 14 -18 15 -16 6 6 -9 36 -18 36 -5 0 -4 -9 3 -20z"/> <path d="M976 2045 c4 -8 8 -15 10 -15 2 0 4 7 4 15 0 8 -4 15 -10 15 -5 0 -7 -7 -4 -15z"/> <path d="M761 2045 c1 -19 18 -51 18 -35 0 8 -4 22 -9 30 -5 8 -9 11 -9 5z"/> <path d="M911 1893 c-1 -28 -18 -39 -24 -16 -2 10 -4 3 -3 -14 0 -18 4 -33 9 -33 11 0 29 51 24 69 -3 10 -5 8 -6 -6z"/> <path d="M407 579 c7 -7 15 -10 18 -7 3 3 -2 9 -12 12 -14 6 -15 5 -6 -5z"/> <path d="M345 399 c-4 -6 -5 -12 -2 -15 2 -3 7 2 10 11 7 17 1 20 -8 4z"/> <path d="M770 2229 c0 -5 5 -7 10 -4 6 3 10 8 10 11 0 2 -4 4 -10 4 -5 0 -10 -5 -10 -11z"/> <path d="M1680 2202 c0 -37 -3 -42 -22 -42 -21 0 -21 0 -2 -14 16 -13 19 -13 22 0 2 8 14 14 28 14 13 0 24 4 24 9 0 5 -9 7 -19 4 -17 -4 -20 0 -19 26 1 17 -2 34 -5 38 -4 3 -7 -12 -7 -35z"/> <path d="M1745 2210 c-3 -5 -1 -10 4 -10 6 0 11 5 11 10 0 6 -2 10 -4 10 -3 0 -8 -4 -11 -10z"/> <path d="M1441 2146 c-8 -9 -11 -19 -7 -23 9 -9 29 13 24 27 -2 8 -8 7 -17 -4z"/> <path d="M1280 2113 c6 -13 18 -23 28 -22 14 0 14 2 2 6 -8 4 -21 13 -28 22 -11 14 -11 13 -2 -6z"/> <path d="M1230 2111 c0 -5 5 -13 10 -16 6 -3 10 -2 10 4 0 5 -4 13 -10 16 -5 3 -10 2 -10 -4z"/> <path d="M1570 2102 c0 -13 249 -157 257 -149 5 6 -38 33 -117 75 -36 20 -68 40 -72 46 -4 6 -8 7 -8 3 0 -5 -13 1 -30 13 -16 12 -30 17 -30 12z"/> <path d="M1103 2061 c8 -23 13 -28 15 -16 2 10 -3 25 -12 33 -14 15 -15 13 -3 -17z"/> <path d="M1127 1972 c1 -65 0 -130 -3 -145 -13 -63 -112 -133 -135 -96 -4 8 -3 16 3 20 6 4 0 6 -14 6 -34 -3 -27 -16 29 -54 48 -33 55 -33 98 2 20 16 20 16 -2 10 -29 -8 -30 8 -3 35 11 11 20 16 20 10 0 -5 5 -10 11 -10 8 0 7 5 -1 15 -16 19 -5 34 12 17 7 -7 16 -12 21 -12 5 0 -1 9 -14 20 -13 10 -18 19 -11 20 6 0 12 7 12 16 0 8 5 12 10 9 6 -3 10 -15 10 -26 0 -21 16 -26 23 -6 4 9 7 9 16 0 6 -7 9 -11 6 -9 -3 2 -20 -10 -36 -25 -17 -16 -42 -29 -54 -29 -13 0 -26 -4 -29 -8 -3 -5 7 -8 22 -7 28 2 132 54 132 66 0 4 -25 22 -55 40 l-55 33 0 108 c0 59 -3 109 -7 111 -5 3 -7 -47 -6 -111z m-81 -261 c-4 -5 -1 -12 4 -14 6 -3 5 -4 -2 -3 -15 3 -23 26 -8 26 6 0 9 -4 6 -9z"/> <path d="M1366 2077 c3 -10 9 -15 12 -12 3 3 0 11 -7 18 -10 9 -11 8 -5 -6z"/> <path d="M652 2055 c0 -16 2 -22 5 -12 2 9 2 23 0 30 -3 6 -5 -1 -5 -18z"/> <path d="M1163 2000 c0 -47 2 -66 4 -42 2 23 2 61 0 85 -2 23 -4 4 -4 -43z"/> <path d="M2058 2073 c7 -3 16 -2 19 1 4 3 -2 6 -13 5 -11 0 -14 -3 -6 -6z"/> <path d="M1866 2055 c-6 -16 12 -65 25 -65 9 0 7 20 -4 37 -15 24 10 19 68 -13 33 -18 78 -41 100 -52 22 -10 45 -25 52 -33 15 -19 26 -246 12 -254 -5 -4 -22 -4 -37 0 -15 4 -21 10 -14 12 6 3 12 9 12 14 0 4 -7 6 -15 3 -8 -3 -22 2 -32 11 -16 17 -16 19 6 36 12 10 20 23 16 29 -4 6 -2 17 5 25 7 9 8 15 0 20 -5 3 -10 19 -10 35 0 26 -36 80 -53 80 -17 0 -27 -42 -18 -75 6 -21 6 -33 0 -30 -13 9 -11 -9 4 -24 10 -11 9 -13 -5 -8 -10 4 -18 2 -18 -3 0 -6 -5 -10 -12 -10 -8 0 -9 3 -2 10 6 6 9 33 6 60 -3 30 0 55 7 64 8 10 9 16 1 21 -6 3 -8 10 -5 15 6 10 -32 20 -50 13 -23 -8 -38 -69 -26 -104 6 -18 6 -27 1 -24 -6 4 -10 14 -10 23 0 15 -2 15 -10 2 -7 -11 -9 -5 -6 21 5 40 -7 71 -17 45 -3 -8 -2 -18 3 -21 5 -3 6 -21 3 -40 -3 -20 -1 -35 4 -35 12 0 53 -35 53 -45 0 -4 -7 -4 -16 -1 -14 5 -15 4 -5 -8 10 -12 17 -13 31 -3 15 9 23 8 38 -6 10 -9 23 -17 28 -17 5 0 20 -16 33 -35 25 -38 81 -75 112 -75 18 0 19 8 19 134 0 153 -7 169 -82 200 -24 10 -50 22 -58 27 -43 25 -110 59 -119 59 -5 0 -11 -7 -15 -15z m69 -177 c1 -43 -2 -78 -6 -78 -22 0 -35 57 -31 133 2 21 7 28 19 25 13 -2 17 -17 18 -80z m82 24 c11 -7 18 -61 15 -114 -1 -19 -8 -28 -19 -28 -16 0 -18 10 -18 75 0 76 1 80 22 67z m-37 -122 c0 -5 -4 -10 -10 -10 -5 0 -10 5 -10 10 0 6 5 10 10 10 6 0 10 -4 10 -10z"/> <path d="M1984 2059 c-3 -5 5 -9 18 -9 13 0 34 -7 46 -16 13 -9 26 -13 30 -9 4 3 -2 12 -13 18 -29 17 -74 26 -81 16z"/> <path d="M1400 1927 c0 -127 1 -137 19 -137 10 0 24 -7 31 -15 7 -8 16 -15 21 -15 5 0 39 -18 75 -40 36 -22 68 -40 71 -40 2 0 27 -15 56 -33 29 -18 108 -65 177 -105 69 -39 131 -75 138 -80 21 -14 2 -41 -34 -48 -33 -6 -62 -29 -51 -40 3 -3 14 -1 25 5 30 16 88 13 106 -5 22 -22 20 -31 -12 -42 -39 -14 -93 -5 -115 19 -28 30 -51 21 -55 -23 -3 -37 21 -98 38 -98 6 0 10 -8 10 -19 0 -29 27 -45 79 -45 74 -1 81 9 81 126 l0 100 -31 11 c-24 9 -29 16 -24 32 11 35 6 257 -6 271 -13 16 -33 8 -25 -11 2 -7 6 -53 7 -102 1 -48 7 -95 13 -103 6 -8 -7 -4 -29 10 -84 49 -262 153 -315 183 -30 17 -92 52 -137 79 l-83 49 0 105 0 106 43 -34 c23 -18 49 -39 57 -47 9 -9 15 -10 18 -3 2 6 10 8 18 5 9 -3 11 -8 6 -12 -6 -3 60 -46 146 -95 86 -49 168 -96 182 -106 14 -9 33 -19 43 -23 15 -6 16 -4 6 14 -6 11 -13 18 -16 15 -4 -3 -21 5 -38 19 -18 13 -35 22 -37 19 -3 -2 -3 6 -1 18 4 20 -6 29 -72 67 -42 24 -79 41 -82 37 -3 -3 8 -13 26 -23 17 -10 31 -24 31 -31 0 -9 -20 -2 -57 19 -106 60 -115 67 -104 74 6 3 27 -3 45 -14 25 -16 40 -19 57 -13 23 9 23 9 -8 26 -37 18 -47 20 -38 6 3 -5 2 -10 -4 -10 -5 0 -13 4 -16 10 -3 5 -15 15 -25 20 -17 9 -19 8 -13 -7 6 -16 5 -16 -10 -4 -9 7 -14 17 -11 22 9 14 -8 10 -26 -6 -16 -14 -18 -14 -23 0 -4 9 -1 15 9 15 27 0 9 25 -19 25 -27 1 -71 20 -99 44 -17 13 -18 6 -18 -122z m285 -7 c3 -5 2 -10 -4 -10 -5 0 -13 5 -16 10 -3 6 -2 10 4 10 5 0 13 -4 16 -10z m120 -100 c3 -5 12 -7 19 -4 7 3 16 -2 19 -10 9 -23 -8 -27 -29 -7 -11 10 -26 21 -34 24 -12 4 -11 6 2 6 9 1 19 -3 23 -9z m95 -523 c3 -26 2 -47 -2 -47 -13 0 -28 37 -28 70 0 49 24 31 30 -23z m139 -34 c1 -64 -6 -73 -59 -73 -50 0 -64 13 -65 59 0 22 2 38 5 36 3 -1 14 1 25 6 18 7 18 8 -5 10 -14 1 2 5 35 9 33 4 61 7 61 8 1 1 2 -24 3 -55z"/> <path d="M1458 2053 c7 -3 16 -2 19 1 4 3 -2 6 -13 5 -11 0 -14 -3 -6 -6z"/> <path d="M1081 2024 c-12 -27 -11 -28 4 -12 10 9 16 21 13 28 -2 7 -10 -1 -17 -16z"/> <path d="M1053 2025 c-3 -9 -3 -18 -1 -21 3 -3 8 4 11 16 6 23 -1 27 -10 5z"/> <path d="M1532 2024 c10 -10 20 -15 24 -12 3 4 -5 12 -18 18 -22 12 -22 12 -6 -6z"/> <path d="M1108 2013 c-2 -5 -1 -28 3 -53 l6 -45 1 53 c2 48 -2 63 -10 45z"/> <path d="M691 2001 c-7 -5 -12 -14 -10 -20 2 -6 10 -2 17 9 14 22 13 23 -7 11z"/> <path d="M1967 1989 c7 -7 15 -10 18 -7 3 3 -2 9 -12 12 -14 6 -15 5 -6 -5z"/> <path d="M1362 1955 c0 -16 2 -22 5 -12 2 9 2 23 0 30 -3 6 -5 -1 -5 -18z"/> <path d="M1627 1969 c7 -7 15 -10 18 -7 3 3 -2 9 -12 12 -14 6 -15 5 -6 -5z"/> <path d="M990 1960 c-13 -8 -12 -10 3 -10 9 0 17 5 17 10 0 12 -1 12 -20 0z"/> <path d="M1980 1960 c-9 -6 -10 -10 -3 -10 6 0 15 5 18 10 8 12 4 12 -15 0z"/> <path d="M680 1935 c0 -8 4 -15 10 -15 5 0 7 7 4 15 -4 8 -8 15 -10 15 -2 0 -4 -7 -4 -15z"/> <path d="M640 1930 c0 -5 5 -10 11 -10 5 0 7 5 4 10 -3 6 -8 10 -11 10 -2 0 -4 -4 -4 -10z"/> <path d="M1460 1920 c8 -6 33 -20 54 -31 26 -14 35 -23 27 -29 -10 -5 -8 -9 4 -13 9 -4 13 -3 10 3 -11 18 10 11 58 -20 25 -16 49 -25 52 -20 3 5 -7 16 -22 24 -15 8 -23 15 -18 16 6 0 33 -16 60 -36 28 -19 97 -61 155 -91 119 -64 120 -64 103 -70 -7 -3 -13 -10 -13 -16 0 -6 8 -3 18 6 16 17 16 19 -8 38 -14 11 -63 40 -109 66 -46 25 -109 61 -140 80 -30 18 -61 31 -68 29 -7 -3 -39 10 -70 28 -57 34 -125 60 -93 36z"/> <path d="M1228 1913 c7 -3 16 -2 19 1 4 3 -2 6 -13 5 -11 0 -14 -3 -6 -6z"/> <path d="M726 1887 c3 -10 9 -15 12 -12 3 3 0 11 -7 18 -10 9 -11 8 -5 -6z"/> <path d="M1098 1890 c-20 -57 -25 -80 -17 -80 5 0 9 6 9 14 0 8 5 16 11 18 6 2 9 17 7 33 -3 18 -6 24 -10 15z"/> <path d="M1450 1885 c0 -8 4 -15 10 -15 5 0 7 7 4 15 -4 8 -8 15 -10 15 -2 0 -4 -7 -4 -15z"/> <path d="M1210 1886 c0 -2 7 -6 15 -10 8 -3 15 -1 15 4 0 6 -7 10 -15 10 -8 0 -15 -2 -15 -4z"/> <path d="M1480 1866 c0 -2 9 -6 20 -9 11 -3 18 -1 14 4 -5 9 -34 13 -34 5z"/> <path d="M1190 1851 c0 -9 24 -21 43 -21 6 0 2 7 -9 15 -22 17 -34 19 -34 6z"/> <path d="M1359 1848 c-6 -21 -5 -38 1 -38 5 0 8 9 7 20 -1 17 -5 26 -8 18z"/> <path d="M2168 1843 c6 -2 18 -2 25 0 6 3 1 5 -13 5 -14 0 -19 -2 -12 -5z"/> <path d="M646 1817 c-4 -18 -4 -18 17 -1 12 11 24 20 26 21 2 1 -6 1 -17 0 -12 0 -23 -10 -26 -20z"/> <path d="M715 1830 c3 -5 11 -10 16 -10 6 0 7 5 4 10 -3 6 -11 10 -16 10 -6 0 -7 -4 -4 -10z"/> <path d="M1297 1829 c7 -7 15 -10 18 -7 3 3 -2 9 -12 12 -14 6 -15 5 -6 -5z"/> <path d="M1485 1820 c10 -11 25 -20 34 -20 12 1 10 5 -8 20 -30 26 -49 26 -26 0z"/> <path d="M1530 1834 c0 -14 39 -59 46 -52 3 3 -6 19 -20 34 -14 16 -26 24 -26 18z"/> <path d="M671 1804 c-7 -8 -11 -17 -9 -20 3 -2 13 5 23 16 10 11 14 20 9 20 -5 -1 -15 -8 -23 -16z"/> <path d="M1590 1810 c0 -5 5 -12 10 -15 6 -4 8 -10 5 -15 -3 -4 4 -6 15 -3 27 7 25 17 -5 31 -14 6 -25 7 -25 2z"/> <path d="M1260 1781 c-14 -11 -63 -42 -110 -70 -46 -28 -81 -51 -77 -51 9 0 105 53 170 93 26 16 54 26 63 23 10 -4 14 -1 12 6 -7 20 -30 19 -58 -1z"/> <path d="M1350 1788 c-12 -8 -12 -9 2 -5 9 3 19 1 22 -6 3 -9 5 -9 5 0 1 18 -13 23 -29 11z"/> <path d="M927 1775 c-16 -11 -16 -13 -2 -19 9 -3 14 -2 10 3 -3 5 1 11 7 14 7 2 11 7 8 10 -3 3 -13 0 -23 -8z"/> <path d="M1043 1770 c-11 -16 -10 -18 2 -14 8 4 15 12 15 20 0 19 -3 18 -17 -6z"/> <path d="M1535 1780 c3 -5 8 -10 11 -10 2 0 4 5 4 10 0 6 -5 10 -11 10 -5 0 -7 -4 -4 -10z"/> <path d="M1674 1777 c10 -7 33 -22 51 -33 18 -12 42 -25 54 -29 21 -6 29 -25 11 -25 -5 0 -32 14 -58 30 -27 17 -54 30 -61 30 -6 0 -11 4 -11 8 0 4 -9 8 -21 8 -19 0 -18 -2 5 -19 14 -10 26 -26 26 -36 0 -11 27 -33 78 -61 42 -24 79 -47 82 -50 13 -13 90 -50 90 -42 0 5 -52 38 -117 73 -71 40 -119 73 -124 86 -6 16 18 5 109 -49 64 -39 123 -71 132 -73 8 -1 15 -12 14 -24 0 -11 3 -21 8 -21 14 0 8 50 -7 56 -8 4 -15 14 -15 24 0 10 -12 26 -27 36 -59 38 -216 124 -227 123 -6 0 -3 -6 8 -12z m173 -101 c4 -7 22 -20 38 -29 17 -9 25 -16 18 -17 -18 0 -63 22 -63 32 0 4 -9 8 -21 8 -11 0 -17 5 -14 10 9 14 33 12 42 -4z"/> <path d="M2237 1776 c-4 -10 -1 -13 9 -9 15 6 19 23 5 23 -5 0 -11 -7 -14 -14z"/> <path d="M1916 1772 c-3 -6 -1 -14 5 -17 15 -10 25 3 12 16 -7 7 -13 7 -17 1z"/> <path d="M645 1761 c-3 -5 0 -13 6 -17 7 -4 9 -3 5 4 -3 5 0 13 6 15 9 4 10 6 1 6 -6 1 -14 -3 -18 -8z"/> <path d="M1404 1753 c2 -10 9 -19 17 -21 8 -3 22 -11 31 -19 9 -8 22 -12 28 -8 15 9 2 25 -21 25 -10 0 -19 3 -19 8 0 4 -9 13 -19 19 -16 10 -19 9 -17 -4z"/> <path d="M1571 1754 c12 -15 62 -44 75 -44 3 0 1 7 -6 15 -7 8 -19 15 -26 15 -8 0 -14 4 -14 9 0 5 -9 11 -21 14 -17 5 -18 3 -8 -9z"/> <path d="M1275 1750 c-3 -6 1 -7 9 -4 18 7 21 14 7 14 -6 0 -13 -4 -16 -10z"/> <path d="M2300 1750 c0 -5 4 -10 9 -10 6 0 13 5 16 10 3 6 -1 10 -9 10 -9 0 -16 -4 -16 -10z"/> <path d="M2376 1736 c10 -8 21 -12 24 -10 5 6 -21 24 -34 24 -6 0 -1 -6 10 -14z"/> <path d="M2049 1727 c7 -7 14 -8 21 -1 6 6 2 10 -12 11 -16 2 -18 -1 -9 -10z"/> <path d="M2320 1731 c0 -5 8 -12 18 -15 45 -17 150 -89 162 -110 9 -17 11 -62 8 -159 -2 -75 0 -133 4 -131 5 3 8 71 8 151 l0 146 -36 33 c-19 19 -42 34 -49 34 -7 0 -20 6 -27 14 -14 13 -72 46 -83 46 -3 0 -5 -4 -5 -9z"/> <path d="M750 1720 c-13 -8 -12 -10 3 -10 9 0 17 5 17 10 0 12 -1 12 -20 0z"/> <path d="M1260 1720 c-23 -7 -23 -8 -3 -9 12 -1 25 4 28 9 3 6 5 10 3 9 -2 -1 -14 -5 -28 -9z"/> <path d="M1360 1720 c0 -5 9 -10 20 -10 11 0 20 5 20 10 0 6 -9 10 -20 10 -11 0 -20 -4 -20 -10z"/> <path d="M921 1703 c-1 -27 -18 -31 -24 -5 -2 9 -4 2 -4 -16 0 -33 0 -33 20 -14 10 11 17 28 14 38 -4 16 -5 15 -6 -3z"/> <path d="M702 1694 c-7 -8 -8 -14 -3 -14 10 0 25 19 20 25 -2 1 -10 -3 -17 -11z"/> <path d="M1218 1659 c-38 -23 -68 -45 -68 -50 0 -15 19 -19 27 -6 4 7 35 29 67 49 49 29 64 34 88 28 21 -7 28 -5 28 6 0 30 -71 16 -142 -27z"/> <path d="M1405 1690 c-4 -6 5 -10 20 -10 15 0 24 4 20 10 -3 6 -12 10 -20 10 -8 0 -17 -4 -20 -10z"/> <path d="M1490 1690 c0 -12 47 -13 53 -2 3 4 -8 8 -24 9 -16 1 -29 -2 -29 -7z"/> <path d="M850 1685 c0 -2 6 -8 13 -14 10 -8 14 -7 14 2 0 8 -6 14 -14 14 -7 0 -13 -1 -13 -2z"/> <path d="M582 1655 c0 -16 2 -22 5 -12 2 9 2 23 0 30 -3 6 -5 -1 -5 -18z"/> <path d="M1366 1662 c-3 -9 -4 -27 -1 -40 3 -17 -1 -22 -18 -23 -12 0 -17 -3 -10 -5 16 -7 -44 -59 -77 -67 -35 -9 -56 -25 -46 -34 5 -4 11 -2 13 5 3 6 9 10 14 6 5 -3 9 -1 9 5 0 6 22 7 55 4 49 -5 55 -4 49 11 -6 16 -24 23 -24 8 0 -4 -9 -8 -20 -8 -18 0 -18 1 -2 16 23 22 50 31 57 20 8 -13 35 -13 35 0 0 6 -9 10 -20 10 -27 0 -25 16 2 31 14 8 18 14 10 17 -15 5 -16 42 -1 42 5 0 7 5 4 10 -10 15 -23 12 -29 -8z"/> <path d="M1455 1669 c-10 -15 1 -22 24 -14 12 3 19 11 16 16 -8 12 -32 11 -40 -2z"/> <path d="M2482 1676 c2 -1 12 -8 22 -16 11 -8 17 -10 13 -3 -4 6 -1 13 5 16 7 2 0 4 -15 4 -15 0 -27 0 -25 -1z"/> <path d="M1545 1660 c3 -5 13 -10 21 -10 8 0 14 5 14 10 0 6 -9 10 -21 10 -11 0 -17 -4 -14 -10z"/> <path d="M1505 1650 c-9 -15 4 -30 20 -23 8 3 15 9 15 13 0 12 -29 20 -35 10z"/> <path d="M671 1634 c0 -11 3 -14 6 -6 3 7 2 16 -1 19 -3 4 -6 -2 -5 -13z"/> <path d="M1410 1640 c0 -5 7 -10 15 -10 8 0 15 5 15 10 0 6 -7 10 -15 10 -8 0 -15 -4 -15 -10z"/> <path d="M1604 1636 c11 -9 24 -16 29 -16 4 0 5 -4 2 -10 -3 -5 3 -10 14 -10 29 0 26 13 -7 28 -45 22 -59 25 -38 8z"/> <path d="M350 1621 c0 -12 5 -21 10 -21 6 0 10 6 10 14 0 8 -4 18 -10 21 -5 3 -10 -3 -10 -14z"/> <path d="M2070 1631 c0 -10 19 -25 25 -20 1 2 -3 10 -11 17 -8 7 -14 8 -14 3z"/> <path d="M560 1623 c0 -6 8 -17 18 -24 16 -13 16 -13 2 6 -8 11 -16 22 -17 24 -2 2 -3 0 -3 -6z"/> <path d="M1457 1623 c-13 -12 -7 -23 12 -23 26 0 35 16 15 24 -19 7 -19 7 -27 -1z"/> <path d="M1553 1623 c-21 -8 -15 -23 8 -23 12 0 28 -8 35 -17 10 -14 15 -15 25 -6 10 10 7 14 -14 22 -15 6 -27 15 -27 21 0 11 -7 12 -27 3z"/> <path d="M2130 1612 c0 -5 7 -9 15 -9 8 0 12 4 9 9 -3 4 -9 8 -15 8 -5 0 -9 -4 -9 -8z"/> <path d="M2540 1610 c-9 -6 -10 -10 -3 -10 6 0 15 5 18 10 8 12 4 12 -15 0z"/> <path d="M998 1603 c7 -3 16 -2 19 1 4 3 -2 6 -13 5 -11 0 -14 -3 -6 -6z"/> <path d="M2273 1594 c-7 -20 12 -63 32 -71 26 -9 29 5 5 25 -13 10 -21 26 -19 37 4 18 5 18 23 -1 19 -18 19 -18 13 -1 -4 10 -7 21 -7 23 0 12 -42 2 -47 -12z"/> <path d="M410 1590 c0 -5 5 -10 10 -10 6 0 10 5 10 10 0 6 -4 10 -10 10 -5 0 -10 -4 -10 -10z"/> <path d="M1192 1575 c0 -16 2 -22 5 -12 2 9 2 23 0 30 -3 6 -5 -1 -5 -18z"/> <path d="M1406 1591 c-3 -5 3 -11 14 -14 21 -5 32 1 24 14 -7 12 -31 11 -38 0z"/> <path d="M1500 1590 c-12 -8 -12 -10 2 -15 20 -8 41 2 33 16 -8 11 -16 11 -35 -1z"/> <path d="M1680 1590 c0 -13 28 -25 38 -16 3 4 0 11 -8 16 -20 13 -30 12 -30 0z"/> <path d="M1294 1568 l-19 -23 23 19 c21 18 27 26 19 26 -2 0 -12 -10 -23 -22z"/> <path d="M2460 1581 c0 -7 -5 -9 -12 -5 -7 5 -8 3 -3 -5 5 -9 10 -10 18 -2 6 6 8 14 4 18 -4 3 -7 1 -7 -6z"/> <path d="M2630 1561 c0 -23 -5 -31 -22 -34 -23 -4 -23 -4 -1 -6 14 -1 23 -9 26 -23 2 -13 5 3 6 35 0 31 -1 57 -4 57 -3 0 -5 -13 -5 -29z"/> <path d="M445 1570 c3 -5 11 -10 16 -10 6 0 7 5 4 10 -3 6 -11 10 -16 10 -6 0 -7 -4 -4 -10z"/> <path d="M1457 1574 c-13 -13 -7 -24 14 -24 11 0 19 5 17 12 -5 14 -22 21 -31 12z"/> <path d="M1645 1570 c-9 -15 4 -30 19 -24 7 3 16 -2 19 -10 4 -9 13 -16 22 -16 22 0 19 18 -5 25 -11 3 -20 10 -20 15 0 12 -29 20 -35 10z"/> <path d="M2346 1565 c-3 -9 3 -23 14 -32 11 -10 20 -22 20 -27 0 -6 -5 -5 -12 2 -21 21 -32 13 -13 -8 10 -12 25 -18 32 -16 7 3 17 -4 23 -14 12 -22 50 -28 50 -8 0 6 -10 23 -22 36 l-23 24 25 -7 c22 -7 23 -6 11 9 -22 26 -44 21 -37 -9 4 -14 3 -25 -1 -25 -15 0 -33 39 -26 56 3 9 0 20 -8 25 -20 12 -26 11 -33 -6z m34 -15 c0 -5 -4 -10 -10 -10 -5 0 -10 5 -10 10 0 6 5 10 10 10 6 0 10 -4 10 -10z m60 -70 c0 -5 -4 -10 -10 -10 -5 0 -10 5 -10 10 0 6 5 10 10 10 6 0 10 -4 10 -10z"/> <path d="M1540 1560 c0 -5 9 -10 20 -10 11 0 20 5 20 10 0 6 -9 10 -20 10 -11 0 -20 -4 -20 -10z"/> <path d="M1730 1562 c0 -11 55 -42 76 -42 16 0 16 2 -4 16 -12 8 -27 12 -32 9 -6 -3 -10 1 -10 9 0 9 -7 16 -15 16 -8 0 -15 -4 -15 -8z"/> <path d="M423 1547 c15 -6 27 -15 27 -20 0 -4 5 -5 11 -1 13 8 -27 34 -51 33 -8 -1 -3 -6 13 -12z"/> <path d="M1416 1540 c-17 -6 -15 -9 16 -28 19 -12 39 -22 43 -22 5 0 16 -6 24 -14 13 -12 18 -12 28 -1 10 11 6 16 -22 25 -19 6 -35 15 -35 18 0 14 -36 29 -54 22z"/> <path d="M1496 1541 c-7 -11 22 -23 36 -15 6 4 5 10 -3 15 -18 11 -26 11 -33 0z"/> <path d="M1595 1539 c-10 -15 1 -23 20 -15 9 3 13 10 10 16 -8 13 -22 13 -30 -1z"/> <path d="M2071 1534 c0 -11 3 -14 6 -6 3 7 2 16 -1 19 -3 4 -6 -2 -5 -13z"/> <path d="M1040 1530 c0 -5 5 -10 11 -10 5 0 7 5 4 10 -3 6 -8 10 -11 10 -2 0 -4 -4 -4 -10z"/> <path d="M493 1525 c7 -8 19 -11 64 -17 10 -1 10 -5 1 -15 -8 -11 -7 -12 6 -7 19 7 22 34 2 34 -7 0 -29 3 -47 6 -19 4 -31 3 -26 -1z"/> <path d="M461 1401 c-7 -64 -17 -133 -21 -153 -7 -36 1 -51 16 -27 3 6 21 17 39 24 31 14 32 16 43 109 15 119 15 114 -6 120 -10 4 -28 15 -39 25 -20 19 -20 19 -32 -98z m65 15 c-3 -23 -8 -64 -12 -91 -5 -41 -11 -53 -31 -62 -21 -10 -24 -10 -19 3 3 9 6 40 6 70 0 31 4 53 8 50 5 -3 7 17 7 44 -2 48 -2 48 22 37 22 -10 24 -16 19 -51z"/> <path d="M481 1344 c0 -11 3 -14 6 -6 3 7 2 16 -1 19 -3 4 -6 -2 -5 -13z"/> <path d="M492 1300 c0 -14 2 -19 5 -12 2 6 2 18 0 25 -3 6 -5 1 -5 -13z"/> <path d="M1540 1510 c0 -5 9 -10 20 -10 11 0 20 5 20 10 0 6 -9 10 -20 10 -11 0 -20 -4 -20 -10z"/> <path d="M1630 1510 c0 -5 11 -12 25 -16 14 -3 25 -10 25 -14 0 -4 -11 -11 -25 -14 -14 -4 -25 -11 -25 -16 0 -6 -7 -10 -15 -10 -9 0 -15 -9 -15 -21 0 -19 1 -19 16 -4 28 28 72 46 80 33 5 -7 3 -8 -6 -3 -9 5 -11 4 -6 -3 4 -7 13 -12 21 -12 7 0 15 -7 19 -15 12 -32 -12 -63 -94 -125 -64 -48 -66 -50 -48 -50 10 0 29 10 43 23 14 12 45 38 70 57 29 23 44 43 44 59 1 16 5 21 16 17 8 -3 15 -2 15 3 0 5 -9 11 -20 14 -11 3 -20 13 -20 22 0 12 5 15 20 10 11 -3 20 -2 20 3 0 16 -26 22 -39 9 -8 -8 -16 -6 -29 7 -16 18 -16 19 1 13 9 -4 17 -2 17 3 0 6 -9 10 -19 10 -10 0 -21 7 -25 15 -6 16 -46 21 -46 5z"/> <path d="M1735 1510 c-8 -13 20 -24 36 -15 8 6 7 10 -2 16 -18 11 -26 11 -34 -1z"/> <path d="M1826 1511 c-7 -11 18 -33 28 -24 3 4 13 -2 20 -13 10 -13 18 -16 25 -9 7 7 -3 17 -29 33 -21 12 -41 18 -44 13z"/> <path d="M1600 1491 c0 -6 -6 -11 -13 -11 -7 0 -21 -6 -31 -13 -16 -12 -16 -14 2 -30 17 -15 20 -16 25 -3 4 11 1 13 -11 10 -14 -5 -13 -3 2 10 11 9 26 16 33 16 15 0 17 16 3 25 -5 3 -10 1 -10 -4z"/> <path d="M1280 1482 c0 -7 -7 -12 -15 -12 -8 0 -15 -4 -15 -10 0 -5 4 -10 9 -10 13 0 35 29 27 37 -3 3 -6 1 -6 -5z"/> <path d="M1385 1480 c3 -5 10 -10 16 -10 5 0 9 5 9 10 0 6 -7 10 -16 10 -8 0 -12 -4 -9 -10z"/> <path d="M1785 1481 c-7 -12 12 -24 25 -16 11 7 4 25 -10 25 -5 0 -11 -4 -15 -9z"/> <path d="M2065 1460 c-3 -5 -1 -10 4 -10 6 0 11 5 11 10 0 6 -2 10 -4 10 -3 0 -8 -4 -11 -10z"/> <path d="M1825 1450 c-3 -5 3 -10 14 -10 12 0 21 5 21 10 0 6 -6 10 -14 10 -8 0 -18 -4 -21 -10z"/> <path d="M1910 1445 c-7 -9 -10 -18 -6 -22 3 -3 6 -1 6 6 0 7 4 10 8 7 5 -3 9 1 9 9 0 19 -2 19 -17 0z"/> <path d="M2340 1449 c0 -5 5 -7 10 -4 6 3 10 8 10 11 0 2 -4 4 -10 4 -5 0 -10 -5 -10 -11z"/> <path d="M1285 1440 c-3 -5 1 -10 9 -10 9 0 16 5 16 10 0 6 -4 10 -9 10 -6 0 -13 -4 -16 -10z"/> <path d="M1468 1443 c7 -3 16 -2 19 1 4 3 -2 6 -13 5 -11 0 -14 -3 -6 -6z"/> <path d="M360 1436 c0 -8 71 -12 76 -4 3 4 -13 8 -35 8 -23 0 -41 -2 -41 -4z"/> <path d="M631 1424 c0 -11 3 -14 6 -6 3 7 2 16 -1 19 -3 4 -6 -2 -5 -13z"/> <path d="M1095 1430 c3 -5 8 -10 11 -10 2 0 4 5 4 10 0 6 -5 10 -11 10 -5 0 -7 -4 -4 -10z"/> <path d="M1776 1431 c-7 -11 22 -23 35 -15 5 3 7 10 4 15 -8 12 -32 12 -39 0z"/> <path d="M2688 1433 c7 -3 16 -2 19 1 4 3 -2 6 -13 5 -11 0 -14 -3 -6 -6z"/> <path d="M2745 1431 c11 -3 36 -15 55 -25 l35 -19 -28 27 c-17 16 -39 26 -55 25 -23 -1 -24 -2 -7 -8z"/> <path d="M1465 1420 c3 -5 10 -10 16 -10 5 0 9 5 9 10 0 6 -7 10 -16 10 -8 0 -12 -4 -9 -10z"/> <path d="M1340 1409 c0 -5 5 -7 10 -4 6 3 10 8 10 11 0 2 -4 4 -10 4 -5 0 -10 -5 -10 -11z"/> <path d="M1071 1394 c0 -11 3 -14 6 -6 3 7 2 16 -1 19 -3 4 -6 -2 -5 -13z"/> <path d="M1688 1403 c7 -3 16 -2 19 1 4 3 -2 6 -13 5 -11 0 -14 -3 -6 -6z"/> <path d="M1840 1400 c0 -6 7 -10 15 -10 8 0 15 2 15 4 0 2 -7 6 -15 10 -8 3 -15 1 -15 -4z"/> <path d="M2695 1380 c-49 -25 -75 -43 -75 -54 0 -13 21 -5 37 14 10 11 22 20 28 20 5 0 22 7 37 14 16 9 30 11 33 5 4 -5 -4 -14 -17 -19 -36 -16 -92 -51 -101 -64 -6 -8 -10 -8 -14 2 -6 15 -63 16 -63 1 0 -6 11 -9 25 -7 13 2 23 -1 22 -7 -1 -5 -13 -9 -27 -8 -22 2 -23 1 -5 -7 l20 -9 -20 0 c-16 -1 -17 -3 -5 -11 8 -5 17 -6 20 -2 9 13 114 77 122 75 5 -2 8 4 8 12 0 8 3 14 8 13 4 -1 20 4 36 11 16 6 32 8 35 4 3 -5 23 -17 44 -28 20 -11 37 -23 37 -26 0 -4 -15 -13 -33 -20 -48 -20 -145 -82 -151 -96 -3 -8 1 -10 11 -6 11 4 14 2 9 -5 -5 -8 -2 -10 9 -5 13 4 14 8 4 14 -16 10 -16 10 46 43 28 15 65 36 83 47 30 17 38 18 68 7 19 -6 34 -17 34 -24 0 -6 11 -15 25 -18 14 -4 25 -11 25 -16 0 -6 9 -10 20 -10 11 0 20 5 20 10 0 6 -7 10 -15 10 -8 0 -23 8 -33 18 -10 9 -38 27 -62 40 -25 13 -79 42 -120 65 l-75 42 -50 -25z"/> <path d="M1260 1392 c0 -14 16 -25 90 -63 36 -18 67 -35 69 -37 3 -1 -3 -10 -12 -19 -11 -11 -31 -16 -59 -15 -24 1 -50 -2 -57 -7 -24 -16 37 -26 74 -12 17 6 41 11 53 11 15 0 22 6 22 19 0 11 8 22 18 25 21 8 112 88 112 100 0 5 -9 1 -20 -9 -11 -10 -20 -15 -20 -11 0 4 -12 -5 -26 -19 -14 -14 -36 -32 -49 -41 -22 -14 -25 -14 -44 5 -12 12 -28 21 -36 21 -8 0 -15 4 -15 8 0 4 -9 8 -20 9 -11 1 -34 11 -50 23 -17 12 -30 17 -30 12z m88 -149 c-10 -2 -26 -2 -35 0 -10 3 -2 5 17 5 19 0 27 -2 18 -5z"/> <path d="M621 1374 c0 -11 3 -14 6 -6 3 7 2 16 -1 19 -3 4 -6 -2 -5 -13z"/> <path d="M2861 1381 c-8 -6 -9 -11 -3 -15 6 -3 14 -1 17 5 9 14 2 20 -14 10z"/> <path d="M411 1375 c1 -19 18 -51 18 -35 0 8 -4 22 -9 30 -5 8 -9 11 -9 5z"/> <path d="M990 1370 c0 -5 5 -10 10 -10 6 0 10 5 10 10 0 6 -4 10 -10 10 -5 0 -10 -4 -10 -10z"/> <path d="M1616 1344 c-24 -24 -19 -30 7 -8 12 10 24 20 26 21 2 2 -1 3 -7 3 -6 0 -18 -7 -26 -16z"/> <path d="M1958 1353 c7 -3 16 -2 19 1 4 3 -2 6 -13 5 -11 0 -14 -3 -6 -6z"/> <path d="M1235 1329 c-4 -6 -5 -13 -2 -16 7 -7 27 6 27 18 0 12 -17 12 -25 -2z"/> <path d="M1790 1320 c-19 -11 -46 -26 -60 -32 -14 -7 -27 -15 -30 -19 -13 -17 -110 -58 -115 -49 -11 18 -31 11 -78 -26 -28 -22 -51 -33 -59 -28 -7 4 -10 4 -6 -1 15 -16 -47 -37 -101 -36 -55 2 -101 23 -101 47 0 8 -8 14 -17 14 -11 0 -14 -3 -7 -8 6 -4 14 -16 18 -28 7 -23 62 -44 118 -44 51 0 96 18 154 62 51 38 74 47 74 28 0 -13 47 -2 80 18 40 26 82 49 120 66 20 9 41 25 48 36 15 25 6 25 -38 0z"/> <path d="M1615 1310 c-3 -5 -1 -10 4 -10 6 0 11 5 11 10 0 6 -2 10 -4 10 -3 0 -8 -4 -11 -10z"/> <path d="M411 1294 c0 -11 3 -14 6 -6 3 7 2 16 -1 19 -3 4 -6 -2 -5 -13z"/> <path d="M1250 1295 c0 -9 6 -12 17 -8 10 4 14 2 10 -4 -3 -5 0 -10 7 -10 11 0 12 4 3 19 -14 22 -37 24 -37 3z"/> <path d="M2481 1294 c0 -11 3 -14 6 -6 3 7 2 16 -1 19 -3 4 -6 -2 -5 -13z"/> <path d="M2538 1285 c5 -29 8 -31 15 -11 3 8 0 19 -7 25 -10 9 -12 6 -8 -14z"/> <path d="M2505 1279 c-4 -6 -5 -12 -2 -15 2 -3 7 2 10 11 7 17 1 20 -8 4z"/> <path d="M1150 1271 c0 -5 5 -13 10 -16 6 -3 10 -2 10 4 0 5 -4 13 -10 16 -5 3 -10 2 -10 -4z"/> <path d="M2135 1270 c4 -6 11 -8 16 -5 14 9 11 15 -7 15 -8 0 -12 -5 -9 -10z"/> <path d="M3119 1248 c4 -28 6 -29 9 -9 2 13 0 27 -5 32 -6 6 -7 -3 -4 -23z"/> <path d="M775 1260 c-16 -7 -17 -9 -3 -9 9 -1 20 4 23 9 7 11 7 11 -20 0z"/> <path d="M2470 1261 c0 -6 4 -13 10 -16 6 -3 7 1 4 9 -7 18 -14 21 -14 7z"/> <path d="M546 1251 c-4 -5 3 -7 14 -4 23 6 26 13 6 13 -8 0 -17 -4 -20 -9z"/> <path d="M2612 1245 c-16 -18 -1 -20 17 -2 11 10 13 9 8 -4 -3 -9 0 -16 6 -16 7 0 20 -4 30 -8 29 -12 19 13 -13 30 -35 18 -32 18 -48 0z"/> <path d="M630 1235 c-9 -11 -9 -15 -1 -15 7 0 9 -4 6 -10 -4 -6 1 -7 11 -3 13 5 14 8 5 11 -10 3 -10 6 -1 12 8 5 8 10 2 14 -5 3 -15 -1 -22 -9z"/> <path d="M1041 1234 c0 -11 3 -14 6 -6 3 7 2 16 -1 19 -3 4 -6 -2 -5 -13z"/> <path d="M2540 1223 c0 -26 8 -34 78 -73 42 -24 128 -75 190 -112 63 -37 117 -68 120 -68 4 0 57 29 117 65 61 36 115 66 120 69 6 2 7 7 3 11 -4 4 -37 -11 -73 -34 -36 -22 -69 -41 -73 -41 -4 0 -24 -11 -44 -25 -45 -30 -54 -31 -54 -5 0 11 3 20 7 20 4 0 60 30 124 66 l116 66 -38 20 c-21 11 -42 24 -47 29 -16 14 -26 10 -26 -10 0 -14 10 -21 35 -25 20 -4 33 -11 30 -17 -4 -5 -11 -7 -16 -4 -5 4 -9 1 -9 -4 0 -6 -5 -11 -10 -11 -6 0 -33 -16 -61 -35 -28 -19 -57 -35 -63 -35 -7 0 -22 -9 -35 -21 -14 -13 -28 -18 -39 -14 -14 5 -10 10 20 26 20 10 39 23 43 28 3 6 11 9 18 7 7 -1 8 -1 3 2 -10 5 54 36 67 33 5 -1 6 3 2 9 -3 5 1 10 9 10 9 0 16 5 16 10 0 15 -26 12 -40 -5 -7 -8 -16 -15 -21 -15 -5 0 -38 -18 -74 -40 -36 -22 -68 -40 -71 -40 -9 0 -287 162 -306 178 -17 14 -18 13 -18 -15z m70 -38 c54 -34 51 -40 -5 -8 -41 23 -54 33 -40 33 3 0 23 -11 45 -25z m120 -70 c14 -8 21 -14 15 -14 -5 0 -21 6 -35 14 -14 8 -20 14 -15 14 6 0 21 -6 35 -14z m113 -65 c37 -19 67 -39 67 -43 0 -7 -53 20 -125 66 -43 27 -19 18 58 -23z"/> <path d="M2340 1230 c0 -6 12 -16 28 -23 15 -6 29 -14 32 -18 3 -3 21 -14 40 -24 19 -10 37 -21 40 -24 9 -11 62 -32 68 -26 9 9 -9 22 -78 57 -36 18 -76 41 -90 51 -28 19 -40 22 -40 7z"/> <path d="M520 1219 c12 -8 9 -9 -12 -5 -15 3 -29 3 -32 -2 -4 -7 22 -8 62 -4 19 3 4 22 -16 22 -15 0 -15 -2 -2 -11z"/> <path d="M678 1223 c7 -3 16 -2 19 1 4 3 -2 6 -13 5 -11 0 -14 -3 -6 -6z"/> <path d="M1750 1221 c0 -10 19 -25 25 -20 1 2 -3 10 -11 17 -8 7 -14 8 -14 3z"/> <path d="M1856 1215 c4 -8 11 -15 16 -15 6 0 5 6 -2 15 -7 8 -14 15 -16 15 -2 0 -1 -7 2 -15z"/> <path d="M718 1203 c7 -3 16 -2 19 1 4 3 -2 6 -13 5 -11 0 -14 -3 -6 -6z"/> <path d="M2760 1206 c0 -3 9 -10 20 -16 11 -6 20 -8 20 -6 0 3 -9 10 -20 16 -11 6 -20 8 -20 6z"/> <path d="M2987 1193 c-16 -16 -19 -16 -27 -3 -8 12 -10 11 -10 -7 0 -28 -1 -28 51 2 31 17 38 25 24 25 -12 0 -29 -8 -38 -17z"/> <path d="M932 1194 c9 -3 19 -13 22 -22 3 -12 4 -12 3 3 -1 12 -10 21 -22 22 -15 1 -15 0 -3 -3z"/> <path d="M2159 1179 c-13 -11 -36 -23 -51 -26 -38 -8 -35 -18 11 -36 21 -9 45 -22 52 -29 8 -7 37 -24 64 -38 27 -14 56 -31 63 -37 7 -7 16 -13 19 -13 11 0 79 35 91 47 7 7 21 13 30 14 12 0 9 4 -8 12 -14 6 -27 14 -30 18 -3 4 -34 21 -70 39 -36 18 -76 41 -89 51 -31 24 -52 24 -82 -2z m83 -18 c8 -10 38 -27 64 -36 57 -22 76 -34 68 -46 -3 -5 3 -6 12 -2 12 4 15 2 12 -8 -3 -8 -17 -13 -33 -12 -25 2 -26 1 -10 -11 17 -12 16 -14 -8 -20 -26 -6 -68 7 -97 30 -8 7 -37 24 -65 39 -56 31 -75 45 -59 45 6 0 21 9 34 20 29 25 61 26 82 1z"/> <path d="M2188 1123 c7 -3 16 -2 19 1 4 3 -2 6 -13 5 -11 0 -14 -3 -6 -6z"/> <path d="M2340 1090 c0 -5 5 -10 10 -10 6 0 10 5 10 10 0 6 -4 10 -10 10 -5 0 -10 -4 -10 -10z"/> <path d="M740 1174 c0 -3 7 -12 15 -20 16 -17 18 -14 9 10 -6 15 -24 23 -24 10z"/> <path d="M775 1170 c3 -5 11 -10 16 -10 6 0 7 5 4 10 -3 6 -11 10 -16 10 -6 0 -7 -4 -4 -10z"/> <path d="M920 1170 c0 -5 5 -10 11 -10 5 0 7 5 4 10 -3 6 -8 10 -11 10 -2 0 -4 -4 -4 -10z"/> <path d="M2770 1166 c14 -8 27 -12 29 -10 6 6 -1 11 -29 18 l-25 7 25 -15z"/> <path d="M724 1142 c0 -10 8 -18 18 -18 16 0 16 2 1 18 -9 10 -17 18 -17 18 -1 0 -2 -8 -2 -18z"/> <path d="M814 1151 c4 -6 16 -16 28 -22 15 -8 18 -8 14 0 -4 6 -16 16 -28 22 -15 8 -18 8 -14 0z"/> <path d="M2900 1150 c0 -5 6 -10 14 -10 8 0 18 5 21 10 3 6 -3 10 -14 10 -12 0 -21 -4 -21 -10z"/> <path d="M1875 1140 c3 -5 8 -10 11 -10 2 0 4 5 4 10 0 6 -5 10 -11 10 -5 0 -7 -4 -4 -10z"/> <path d="M3175 1140 c-3 -6 1 -7 9 -4 18 7 21 14 7 14 -6 0 -13 -4 -16 -10z"/> <path d="M2880 1132 c0 -6 -11 -13 -25 -16 -24 -6 -27 -26 -4 -26 6 0 7 5 3 12 -5 7 -2 9 7 6 17 -7 43 18 29 27 -6 3 -10 2 -10 -3z"/> <path d="M1980 1126 c0 -2 7 -7 16 -10 8 -3 12 -2 9 4 -6 10 -25 14 -25 6z"/> <path d="M2578 1123 c7 -3 16 -2 19 1 4 3 -2 6 -13 5 -11 0 -14 -3 -6 -6z"/> <path d="M1241 1104 c0 -11 3 -14 6 -6 3 7 2 16 -1 19 -3 4 -6 -2 -5 -13z"/> <path d="M2036 1105 c-10 -8 -24 -16 -30 -18 -6 -2 -9 -7 -6 -10 3 -4 19 0 34 8 15 8 32 12 37 9 5 -3 9 2 9 10 0 20 -19 20 -44 1z"/> <path d="M1278 1088 c5 -5 16 -8 23 -6 8 3 3 7 -10 11 -17 4 -21 3 -13 -5z"/> <path d="M3175 1090 c-3 -6 1 -7 9 -4 18 7 21 14 7 14 -6 0 -13 -4 -16 -10z"/> <path d="M3241 1072 c-13 -12 -21 -25 -17 -29 4 -4 11 -1 15 6 5 7 11 9 14 4 4 -5 -10 -17 -29 -26 -41 -20 -44 -20 -44 -7 0 6 7 10 15 10 8 0 15 5 15 10 0 14 -5 13 -42 -10 -29 -18 -30 -20 -10 -20 12 0 22 -4 22 -10 0 -18 25 -11 59 18 24 20 32 34 29 52 l-3 25 -24 -23z"/> <path d="M1141 1067 c-13 -21 -12 -21 5 -5 10 10 16 20 13 22 -3 3 -11 -5 -18 -17z"/> <path d="M2105 1080 c-3 -5 1 -10 10 -10 9 0 13 5 10 10 -3 6 -8 10 -10 10 -2 0 -7 -4 -10 -10z"/> <path d="M2074 1060 c0 -13 4 -16 10 -10 7 7 7 13 0 20 -6 6 -10 3 -10 -10z"/> <path d="M2640 1071 c0 -9 30 -24 36 -18 2 1 -6 8 -16 15 -11 7 -20 8 -20 3z"/> <path d="M1325 1060 c-4 -6 1 -10 9 -10 8 0 22 -7 30 -16 13 -12 16 -13 16 -1 0 17 -47 40 -55 27z"/> <path d="M2140 1060 c0 -5 -11 -12 -25 -16 -14 -4 -24 -9 -21 -12 8 -7 66 19 66 29 0 5 -4 9 -10 9 -5 0 -10 -4 -10 -10z"/> <path d="M2500 1051 c-14 -10 -47 -31 -75 -46 -27 -16 -59 -33 -70 -39 -11 -7 -68 -41 -127 -76 -161 -97 -152 -94 -190 -74 -18 9 -35 20 -38 24 -3 4 -39 24 -80 46 -41 21 -77 41 -80 44 -5 7 -68 30 -79 30 -7 0 60 -39 164 -95 39 -21 72 -41 75 -45 3 -4 21 -15 41 -23 36 -15 37 -14 108 27 40 22 80 46 89 51 9 6 51 30 92 53 41 24 82 47 90 52 8 5 39 23 68 40 29 17 50 35 47 40 -8 12 -5 13 -35 -9z"/> <path d="M1230 1051 c0 -10 39 -27 54 -23 5 2 6 -4 3 -12 -4 -9 6 -20 30 -31 28 -13 33 -19 22 -27 -10 -7 -8 -8 9 -5 51 12 13 -32 -52 -59 -25 -11 -46 -23 -46 -27 0 -5 -4 -5 -10 -2 -5 3 -10 -4 -10 -16 0 -20 1 -21 23 -5 12 9 46 28 75 43 49 26 52 29 52 66 0 23 -4 36 -10 32 -5 -3 -10 -1 -10 4 0 6 -6 11 -13 11 -7 0 -23 9 -35 20 -12 11 -28 20 -37 20 -8 0 -15 5 -15 10 0 6 -7 10 -15 10 -8 0 -15 -4 -15 -9z"/> <path d="M1957 1052 c-28 -6 -8 -23 21 -17 15 3 21 2 15 -1 -21 -10 -15 -21 18 -33 21 -7 36 -8 44 -1 6 5 15 7 18 3 4 -3 7 2 7 12 0 14 -3 15 -14 5 -18 -14 -62 -9 -59 7 3 16 -27 31 -50 25z"/> <path d="M2705 1050 c-16 -7 -17 -9 -3 -9 9 -1 20 4 23 9 7 11 7 11 -20 0z"/> <path d="M3105 1040 c-3 -6 1 -7 9 -4 18 7 21 14 7 14 -6 0 -13 -4 -16 -10z"/> <path d="M1013 1025 c-7 -8 -9 -16 -4 -19 5 -3 12 1 15 10 8 22 4 25 -11 9z"/> <path d="M1160 1025 c0 -8 5 -15 10 -15 6 0 10 7 10 15 0 8 -4 15 -10 15 -5 0 -10 -7 -10 -15z"/> <path d="M890 1019 c0 -5 5 -7 10 -4 6 3 10 8 10 11 0 2 -4 4 -10 4 -5 0 -10 -5 -10 -11z"/> <path d="M1870 1011 c0 -5 9 -13 21 -16 11 -4 53 -27 92 -51 83 -51 158 -87 165 -80 3 3 -7 10 -22 15 -14 6 -50 26 -78 46 -29 19 -58 35 -65 35 -6 0 -18 6 -25 13 -15 14 -73 47 -82 47 -3 0 -6 -4 -6 -9z"/> <path d="M2160 1009 c0 -5 5 -7 10 -4 6 3 10 8 10 11 0 2 -4 4 -10 4 -5 0 -10 -5 -10 -11z"/> <path d="M2224 1011 c3 -5 16 -11 28 -14 22 -6 22 -5 4 8 -22 17 -40 20 -32 6z"/> <path d="M2528 1013 c7 -3 16 -2 19 1 4 3 -2 6 -13 5 -11 0 -14 -3 -6 -6z"/> <path d="M2567 1004 c-28 -15 -29 -38 -2 -28 8 4 12 10 9 15 -7 11 -1 11 30 -1 32 -12 35 -34 4 -25 -14 4 -18 3 -11 -2 8 -6 -3 -16 -35 -33 -26 -14 -53 -30 -60 -37 -8 -7 -18 -10 -24 -7 -7 4 -8 2 -4 -4 4 -7 1 -12 -8 -12 -10 0 -13 6 -10 18 3 9 -7 2 -23 -15 -29 -34 -85 -53 -97 -34 -4 6 -16 11 -27 11 -11 0 -17 -4 -14 -10 3 -5 15 -10 26 -10 10 0 19 -5 19 -11 0 -6 7 -8 16 -5 9 3 12 2 8 -5 -3 -6 -17 -8 -31 -4 -16 4 -22 2 -18 -5 3 -5 0 -11 -7 -11 -24 -2 -43 3 -50 14 -4 7 -16 6 -38 -3 -19 -8 -28 -16 -22 -22 6 -6 17 -6 29 1 23 12 66 4 57 -11 -3 -5 -16 -7 -29 -4 -16 4 -27 -1 -40 -18 -15 -20 -21 -22 -37 -13 -25 16 -23 30 2 17 12 -7 20 -7 20 -1 0 16 -18 23 -40 16 -29 -9 -25 -28 10 -43 31 -14 90 -8 90 9 0 5 4 9 9 9 21 0 130 73 124 83 -3 6 -1 7 5 3 10 -6 67 18 82 35 3 3 30 18 60 33 30 16 62 34 70 41 8 8 27 18 43 24 15 6 27 15 27 20 0 11 -29 23 -40 16 -4 -3 -13 2 -20 10 -15 18 -18 18 -53 -1z m-317 -248 c0 -3 -4 -8 -10 -11 -5 -3 -10 -1 -10 4 0 6 5 11 10 11 6 0 10 -2 10 -4z"/> <path d="M921 994 c0 -11 3 -14 6 -6 3 7 2 16 -1 19 -3 4 -6 -2 -5 -13z"/> <path d="M2800 1006 c0 -2 7 -7 16 -10 8 -3 12 -2 9 4 -6 10 -25 14 -25 6z"/> <path d="M3111 992 c-12 -12 -11 -16 0 -23 7 -4 10 -11 6 -16 -4 -4 -17 -2 -27 5 -26 16 -31 15 -24 -3 4 -8 10 -13 14 -10 5 3 11 1 15 -5 4 -6 13 -5 25 2 14 9 16 15 8 25 -6 8 -7 17 -3 21 4 4 10 1 12 -5 5 -14 33 -18 33 -5 0 4 -11 12 -23 18 -18 8 -26 7 -36 -4z"/> <path d="M1031 984 c0 -11 3 -14 6 -6 3 7 2 16 -1 19 -3 4 -6 -2 -5 -13z"/> <path d="M2120 990 c0 -5 5 -10 10 -10 6 0 10 5 10 10 0 6 -4 10 -10 10 -5 0 -10 -4 -10 -10z"/> <path d="M3010 996 c0 -2 7 -7 16 -10 8 -3 12 -2 9 4 -6 10 -25 14 -25 6z"/> <path d="M896 975 c4 -8 8 -15 10 -15 2 0 4 7 4 15 0 8 -4 15 -10 15 -5 0 -7 -7 -4 -15z"/> <path d="M1460 980 c0 -6 7 -10 15 -10 8 0 15 2 15 4 0 2 -7 6 -15 10 -8 3 -15 1 -15 -4z"/> <path d="M2275 981 c-7 -13 -64 -41 -84 -42 -12 0 -13 -2 -2 -6 15 -6 111 37 111 50 0 10 -18 9 -25 -2z"/> <path d="M2990 976 c0 -2 7 -7 16 -10 8 -3 12 -2 9 4 -6 10 -25 14 -25 6z"/> <path d="M1508 963 c6 -2 10 -9 6 -14 -3 -5 -1 -9 5 -9 17 0 21 18 5 24 -9 3 -19 6 -22 5 -4 0 -1 -3 6 -6z"/> <path d="M1890 966 c0 -8 114 -73 140 -81 24 -7 24 -6 5 8 -22 16 -134 77 -141 77 -2 0 -4 -2 -4 -4z"/> <path d="M2071 967 c2 -2 20 -14 39 -26 l35 -23 -30 26 c-16 14 -34 26 -39 26 -5 0 -7 -1 -5 -3z"/> <path d="M2490 955 c-25 -14 -25 -14 -2 -15 12 0 22 4 22 10 0 6 9 6 26 -1 24 -8 25 -8 14 6 -15 18 -28 18 -60 0z"/> <path d="M2960 966 c0 -2 7 -7 16 -10 8 -3 12 -2 9 4 -6 10 -25 14 -25 6z"/> <path d="M1252 935 c0 -16 2 -22 5 -12 2 9 2 23 0 30 -3 6 -5 -1 -5 -18z"/> <path d="M2155 949 c-11 -16 -1 -19 13 -3 7 8 8 14 3 14 -5 0 -13 -5 -16 -11z"/> <path d="M3025 949 c-18 -9 -18 -9 3 -5 25 5 28 -3 10 -24 -7 -8 -4 -7 7 2 23 22 10 40 -20 27z"/> <path d="M1410 930 c-11 -11 -20 -27 -20 -36 0 -12 4 -11 19 7 17 21 21 22 49 10 18 -7 29 -18 26 -23 -4 -6 2 -8 15 -3 15 4 21 2 21 -8 0 -7 18 -20 39 -27 21 -7 52 -24 67 -39 16 -14 31 -25 34 -23 3 1 6 -49 7 -110 2 -62 8 -142 14 -178 6 -36 10 -93 8 -127 -2 -34 0 -59 5 -56 5 4 6 -5 2 -20 -8 -35 15 -41 95 -27 66 12 92 7 38 -8 l-34 -8 27 -6 c15 -3 25 -1 22 3 -9 15 54 10 69 -6 8 -8 17 -11 21 -8 3 4 6 1 6 -5 0 -16 -21 -20 -63 -10 -21 4 -78 6 -128 4 -55 -3 -87 -1 -84 5 7 10 -18 13 -29 2 -3 -4 -22 -8 -41 -10 -39 -3 -59 20 -50 59 2 13 1 39 -4 58 -8 32 -9 33 -17 13 -5 -12 -7 -50 -4 -85 l5 -63 213 -3 213 -2 -3 22 c-2 12 -19 33 -38 46 -32 22 -42 24 -116 19 -71 -5 -80 -4 -80 11 1 9 -5 126 -13 259 l-14 243 -47 30 c-26 16 -52 30 -58 30 -5 0 -12 4 -14 9 -1 4 -33 25 -70 45 l-67 37 -21 -21z"/> <path d="M1566 925 c10 -8 24 -14 29 -14 6 0 1 6 -9 14 -11 8 -24 15 -30 15 -5 0 -1 -7 10 -15z"/> <path d="M2515 930 c-3 -5 -1 -10 4 -10 6 0 11 5 11 10 0 6 -2 10 -4 10 -3 0 -8 -4 -11 -10z"/> <path d="M1162 905 c0 -16 2 -22 5 -12 2 9 2 23 0 30 -3 6 -5 -1 -5 -18z"/> <path d="M1232 905 c0 -16 2 -22 5 -12 2 9 2 23 0 30 -3 6 -5 -1 -5 -18z"/> <path d="M1271 914 c0 -11 3 -14 6 -6 3 7 2 16 -1 19 -3 4 -6 -2 -5 -13z"/> <path d="M2446 921 c16 -15 54 -23 54 -11 0 6 -4 9 -9 5 -5 -3 -12 -1 -16 5 -3 5 -14 10 -23 10 -10 0 -12 -3 -6 -9z"/> <path d="M2685 920 c-8 -13 5 -13 25 0 13 8 13 10 -2 10 -9 0 -20 -4 -23 -10z"/> <path d="M2978 923 c-17 -4 -14 -33 4 -33 5 0 6 5 3 10 -3 6 3 10 14 10 12 0 21 5 21 10 0 10 -12 11 -42 3z"/> <path d="M1547 909 c7 -7 15 -10 18 -7 3 3 -2 9 -12 12 -14 6 -15 5 -6 -5z"/> <path d="M2411 911 c-10 -7 -10 -10 -1 -16 6 -4 16 -3 22 3 13 13 -4 23 -21 13z"/> <path d="M3050 898 c-19 -11 -36 -21 -38 -23 -3 -3 77 -616 83 -632 8 -22 45 -15 54 9 5 13 5 52 1 88 -5 36 -13 112 -19 170 -21 205 -43 405 -45 407 -1 1 -17 -7 -36 -19z m30 -24 c0 -8 -4 -12 -10 -9 -5 3 -10 2 -10 -4 0 -5 5 -13 10 -16 6 -3 10 -30 10 -58 0 -29 5 -70 10 -92 5 -23 14 -95 20 -160 6 -66 15 -154 20 -195 4 -41 5 -79 0 -83 -12 -14 -27 43 -39 148 -6 55 -17 145 -26 200 -8 55 -17 128 -19 162 -3 34 -8 73 -11 85 -4 13 -4 20 0 16 4 -4 14 -1 22 7 18 19 23 19 23 -1z"/> <path d="M3061 734 c0 -11 3 -14 6 -6 3 7 2 16 -1 19 -3 4 -6 -2 -5 -13z"/> <path d="M3101 414 c0 -11 3 -14 6 -6 3 7 2 16 -1 19 -3 4 -6 -2 -5 -13z"/> <path d="M3121 904 c0 -11 3 -14 6 -6 3 7 2 16 -1 19 -3 4 -6 -2 -5 -13z"/> <path d="M2358 881 c-33 -19 -35 -27 -8 -34 12 -3 17 -1 14 5 -3 5 3 12 15 15 12 3 21 9 21 14 0 16 -15 16 -42 0z"/> <path d="M2700 890 c-9 -6 -10 -10 -3 -10 6 0 15 5 18 10 8 12 4 12 -15 0z"/> <path d="M2946 892 c-4 -7 -15 -12 -25 -12 -10 0 -28 -9 -41 -20 -13 -11 -18 -20 -12 -20 6 0 17 6 24 13 16 17 68 31 68 19 0 -12 -96 -56 -108 -48 -12 7 -72 -13 -72 -24 0 -9 26 -7 36 3 4 4 19 7 33 6 l26 -1 -27 -10 c-16 -5 -28 -15 -28 -21 0 -8 4 -7 12 1 7 7 20 12 30 12 10 0 18 4 18 8 0 5 17 17 37 28 46 24 79 54 59 54 -8 0 -16 5 -18 12 -3 9 -6 9 -12 0z"/> <path d="M970 886 c0 -2 7 -9 15 -16 9 -7 15 -8 15 -2 0 5 -7 12 -15 16 -8 3 -15 4 -15 2z"/> <path d="M1630 880 c8 -5 22 -9 30 -9 10 0 8 3 -5 9 -27 12 -43 12 -25 0z"/> <path d="M1075 870 c-4 -6 1 -7 11 -3 14 5 16 3 10 -13 -5 -14 -4 -16 5 -7 12 12 5 33 -11 33 -5 0 -12 -4 -15 -10z"/> <path d="M1755 869 c-4 -6 -5 -12 -2 -15 2 -3 7 2 10 11 7 17 1 20 -8 4z"/> <path d="M961 844 c0 -11 3 -14 6 -6 3 7 2 16 -1 19 -3 4 -6 -2 -5 -13z"/> <path d="M1690 850 c0 -10 81 -50 99 -50 6 0 11 -4 11 -8 0 -5 12 -14 27 -21 23 -11 25 -10 14 3 -17 20 -151 87 -151 76z"/> <path d="M1880 840 c0 -5 5 -10 10 -10 6 0 10 5 10 10 0 6 -4 10 -10 10 -5 0 -10 -4 -10 -10z"/> <path d="M1000 830 c0 -5 5 -10 11 -10 5 0 7 5 4 10 -3 6 -8 10 -11 10 -2 0 -4 -4 -4 -10z"/> <path d="M1280 820 c0 -5 7 -10 16 -10 8 0 12 5 9 10 -3 6 -10 10 -16 10 -5 0 -9 -4 -9 -10z"/> <path d="M1840 815 c0 -8 4 -15 10 -15 5 0 7 7 4 15 -4 8 -8 15 -10 15 -2 0 -4 -7 -4 -15z"/> <path d="M2265 820 c3 -5 13 -10 21 -10 8 0 14 5 14 10 0 6 -9 10 -21 10 -11 0 -17 -4 -14 -10z"/> <path d="M1716 797 c3 -10 9 -15 12 -12 3 3 0 11 -7 18 -10 9 -11 8 -5 -6z"/> <path d="M1756 779 c24 -27 95 -64 88 -47 -2 7 -22 22 -44 32 -22 11 -40 23 -40 28 0 4 -5 8 -12 8 -6 0 -3 -9 8 -21z"/> <path d="M1062 774 c10 -10 20 -16 22 -13 3 3 -5 11 -17 18 -21 13 -21 12 -5 -5z"/> <path d="M1245 780 c3 -5 8 -10 11 -10 2 0 4 5 4 10 0 6 -5 10 -11 10 -5 0 -7 -4 -4 -10z"/> <path d="M2720 772 c0 -5 -22 -19 -50 -32 -27 -13 -50 -27 -50 -32 0 -4 -7 -8 -16 -8 -8 0 -12 -5 -9 -10 4 -6 17 -3 35 10 15 11 33 20 38 20 6 0 17 6 24 13 7 7 24 21 38 30 19 13 21 17 7 17 -9 0 -17 -4 -17 -8z"/> <path d="M1930 760 c0 -5 5 -10 10 -10 6 0 10 5 10 10 0 6 -4 10 -10 10 -5 0 -10 -4 -10 -10z"/> <path d="M2770 760 c19 -13 30 -13 30 0 0 6 -10 10 -22 10 -19 0 -20 -2 -8 -10z"/> <path d="M2865 760 c-3 -5 -1 -10 4 -10 6 0 11 5 11 10 0 6 -2 10 -4 10 -3 0 -8 -4 -11 -10z"/> <path d="M240 740 c0 -14 -7 -20 -22 -21 -18 -1 -19 -2 -5 -6 16 -4 17 -16 15 -111 l-3 -107 -115 -6 -115 -5 123 -2 122 -2 0 -36 c0 -19 7 -42 15 -50 8 -9 15 -11 15 -6 0 5 -3 12 -7 16 -12 11 -15 57 -17 214 0 78 -2 142 -3 142 -2 0 -3 -9 -3 -20z"/> <path d="M1047 749 c7 -9 10 -19 6 -22 -3 -4 -1 -7 5 -7 17 0 15 16 -5 31 -16 12 -17 12 -6 -2z"/> <path d="M1860 750 c0 -6 7 -10 15 -10 8 0 15 2 15 4 0 2 -7 6 -15 10 -8 3 -15 1 -15 -4z"/> <path d="M2358 753 c7 -3 16 -2 19 1 4 3 -2 6 -13 5 -11 0 -14 -3 -6 -6z"/> <path d="M2068 743 c7 -3 16 -2 19 1 4 3 -2 6 -13 5 -11 0 -14 -3 -6 -6z"/> <path d="M2820 733 c-24 -12 -24 -13 18 -13 l42 0 0 -120 0 -120 -120 0 -120 0 0 82 c0 98 -9 99 -13 2 l-2 -69 -99 -3 c-64 -2 -103 1 -112 9 -11 9 -14 8 -14 -5 0 -12 -10 -16 -37 -17 -37 -1 -37 -2 -8 -8 17 -3 30 -11 30 -18 0 -6 3 -15 8 -19 4 -4 7 5 7 19 l0 27 120 0 120 0 2 -92 2 -93 3 88 4 87 103 0 103 0 7 -55 c3 -30 3 -80 0 -111 l-7 -56 -68 4 c-38 2 -69 0 -69 -4 0 -5 36 -8 80 -8 l80 0 2 -122 2 -123 3 118 4 117 74 0 c41 0 75 -4 75 -9 0 -5 7 -12 16 -15 14 -5 15 -4 5 8 -9 11 -9 15 1 19 7 3 -31 6 -84 6 l-98 1 0 120 0 120 83 2 82 2 -77 3 -78 4 0 109 0 110 33 1 c26 1 22 3 -17 10 -27 4 -52 12 -55 17 -3 4 -17 2 -31 -5z"/> <path d="M1906 731 c-6 -9 62 -47 69 -39 3 3 -10 15 -29 26 -20 12 -38 18 -40 13z"/> <path d="M2725 730 c-3 -4 -16 -11 -31 -14 -34 -9 -80 -51 -65 -60 6 -4 11 -1 11 6 0 15 81 55 120 60 25 4 25 4 -3 9 -15 4 -30 3 -32 -1z"/> <path d="M48 713 c29 -2 74 -2 100 0 26 2 2 3 -53 3 -55 0 -76 -1 -47 -3z"/> <path d="M1860 716 c0 -12 155 -97 158 -87 5 16 52 13 58 -3 3 -8 11 -13 18 -10 7 3 19 -2 26 -11 7 -8 17 -15 22 -15 6 0 5 7 -2 16 -20 23 -82 46 -110 41 -23 -5 -81 19 -88 36 -2 4 -9 7 -17 7 -7 0 -18 7 -25 15 -11 14 -40 21 -40 11z"/> <path d="M2980 710 c0 -5 7 -7 15 -4 8 4 15 8 15 10 0 2 -7 4 -15 4 -8 0 -15 -4 -15 -10z"/> <path d="M1752 670 c0 -19 2 -27 5 -17 2 9 2 25 0 35 -3 9 -5 1 -5 -18z"/> <path d="M3002 680 c0 -14 2 -19 5 -12 2 6 2 18 0 25 -3 6 -5 1 -5 -13z"/> <path d="M383 675 c0 -8 4 -12 9 -9 5 3 6 10 3 15 -9 13 -12 11 -12 -6z"/> <path d="M1985 680 c-4 -6 -4 -10 -1 -10 2 0 11 -3 20 -6 9 -3 16 -2 16 4 0 14 -28 23 -35 12z"/> <path d="M2978 665 c-3 -14 -1 -25 3 -25 5 0 9 11 9 25 0 14 -2 25 -4 25 -2 0 -6 -11 -8 -25z"/> <path d="M2551 666 c-6 -8 -23 -17 -37 -20 -13 -4 -52 -23 -87 -44 -84 -51 -112 -62 -152 -62 -19 0 -35 -4 -35 -10 0 -5 -7 -10 -15 -10 -8 0 -15 -4 -15 -10 0 -15 19 -12 37 6 9 9 25 13 38 10 21 -5 126 43 186 85 25 18 75 41 92 43 4 1 7 5 8 9 1 16 -8 17 -20 3z"/> <path d="M1872 654 c10 -10 20 -16 22 -13 3 3 -5 11 -17 18 -21 13 -21 12 -5 -5z"/> <path d="M2545 629 c-4 -5 -19 -15 -33 -21 -15 -6 -22 -12 -15 -15 7 -2 29 7 50 21 23 16 31 26 21 26 -9 0 -20 -5 -23 -11z"/> <path d="M1370 620 c20 -13 33 -13 25 0 -3 6 -14 10 -23 10 -15 0 -15 -2 -2 -10z"/> <path d="M2031 614 c0 -11 3 -14 6 -6 3 7 2 16 -1 19 -3 4 -6 -2 -5 -13z"/> <path d="M2050 604 c0 -8 5 -12 10 -9 6 3 10 10 10 16 0 5 -4 9 -10 9 -5 0 -10 -7 -10 -16z"/> <path d="M515 590 c3 -5 13 -10 21 -10 8 0 12 5 9 10 -3 6 -13 10 -21 10 -8 0 -12 -4 -9 -10z"/> <path d="M2070 553 c0 -33 -17 -184 -35 -316 l-5 -37 45 0 c40 0 45 2 43 23 -1 23 17 178 31 258 8 51 5 69 -13 69 -8 0 -25 9 -40 21 l-26 20 0 -38z m59 -58 c0 -16 -8 -84 -17 -150 -14 -98 -20 -120 -34 -123 -10 -2 -18 2 -18 8 0 6 5 8 11 4 8 -4 8 0 0 15 -9 16 -9 47 0 124 6 56 12 112 11 124 0 16 5 20 17 16 13 -5 14 -3 4 8 -20 20 -15 31 7 17 13 -9 20 -23 19 -43z"/> <path d="M2102 481 c-11 -7 -11 -9 2 -14 10 -4 16 -1 16 8 0 17 -1 17 -18 6z"/> <path d="M2101 414 c0 -11 3 -14 6 -6 3 7 2 16 -1 19 -3 4 -6 -2 -5 -13z"/> <path d="M2082 380 c0 -14 2 -19 5 -12 2 6 2 18 0 25 -3 6 -5 1 -5 -13z"/> <path d="M2091 338 c-1 -10 -5 -18 -11 -18 -5 0 -10 -5 -10 -12 0 -8 6 -7 16 4 9 9 14 22 11 30 -4 9 -6 7 -6 -4z"/> <path d="M2438 566 c-21 -11 -38 -25 -38 -29 0 -4 18 3 40 15 22 13 40 26 40 31 0 4 -1 7 -2 6 -2 -1 -20 -11 -40 -23z"/> <path d="M1506 573 c-9 -10 -7 -43 3 -43 5 0 12 -12 14 -27 3 -16 4 -6 4 20 -1 47 -7 63 -21 50z"/> <path d="M2008 573 c7 -3 16 -2 19 1 4 3 -2 6 -13 5 -11 0 -14 -3 -6 -6z"/> <path d="M2041 564 c0 -11 3 -14 6 -6 3 7 2 16 -1 19 -3 4 -6 -2 -5 -13z"/> <path d="M2161 568 c9 -7 18 -20 21 -27 4 -13 5 -12 10 1 4 11 -2 19 -20 27 -22 9 -24 9 -11 -1z"/> <path d="M615 550 c-16 -7 -17 -9 -3 -9 9 -1 20 4 23 9 7 11 7 11 -20 0z"/> <path d="M1200 550 c0 -5 5 -10 11 -10 5 0 7 5 4 10 -3 6 -8 10 -11 10 -2 0 -4 -4 -4 -10z"/> <path d="M2012 540 c0 -14 2 -19 5 -12 2 6 2 18 0 25 -3 6 -5 1 -5 -13z"/> <path d="M2360 525 c-7 -8 -19 -15 -26 -15 -8 0 -14 -5 -14 -11 0 -6 -11 -8 -27 -5 -16 3 -35 2 -43 -4 -11 -7 -5 -10 24 -10 38 0 106 32 106 51 0 13 -6 11 -20 -6z"/> <path d="M1410 507 c-33 -11 -44 -32 -17 -32 6 0 15 -7 18 -14 4 -11 7 -9 12 8 5 21 3 22 -21 16 -15 -4 -24 -3 -19 1 12 13 111 13 119 1 5 -7 8 -3 8 11 0 18 -5 22 -32 21 -18 0 -49 -5 -68 -12z"/> <path d="M2001 494 c0 -11 3 -14 6 -6 3 7 2 16 -1 19 -3 4 -6 -2 -5 -13z"/> <path d="M2032 480 c0 -19 2 -27 5 -17 2 9 2 25 0 35 -3 9 -5 1 -5 -18z"/> <path d="M455 481 l-30 -7 26 -5 c14 -3 30 0 37 8 14 14 12 14 -33 4z"/> <path d="M260 469 c0 -5 5 -7 10 -4 6 3 10 8 10 11 0 2 -4 4 -10 4 -5 0 -10 -5 -10 -11z"/> <path d="M298 473 c7 -3 16 -2 19 1 4 3 -2 6 -13 5 -11 0 -14 -3 -6 -6z"/> <path d="M968 473 c6 -2 18 -2 25 0 6 3 1 5 -13 5 -14 0 -19 -2 -12 -5z"/> <path d="M1110 464 c-22 -8 -28 -13 -15 -13 11 0 31 6 45 14 31 17 17 17 -30 -1z"/> <path d="M768 463 c7 -3 16 -2 19 1 4 3 -2 6 -13 5 -11 0 -14 -3 -6 -6z"/> <path d="M276 444 c-4 -9 -4 -19 -1 -22 2 -3 7 3 11 12 4 9 4 19 1 22 -2 3 -7 -3 -11 -12z"/> <path d="M973 453 c9 -2 23 -2 30 0 6 3 -1 5 -18 5 -16 0 -22 -2 -12 -5z"/> <path d="M426 433 c-6 -14 -5 -15 5 -6 7 7 10 15 7 18 -3 3 -9 -2 -12 -12z"/> <path d="M471 425 c-1 -11 -2 -55 -1 -97 l1 -77 -33 -4 -33 -4 37 -1 c20 -1 38 -6 40 -10 2 -4 17 -5 33 -1 l30 7 -32 1 -32 1 -4 103 c-1 56 -4 93 -6 82z"/> <path d="M858 433 c7 -3 16 -2 19 1 4 3 -2 6 -13 5 -11 0 -14 -3 -6 -6z"/> <path d="M3171 430 c0 -8 6 -37 13 -65 8 -27 15 -43 15 -35 0 8 -6 38 -13 65 -8 28 -15 43 -15 35z"/> <path d="M1260 419 c0 -5 5 -7 10 -4 6 3 10 8 10 11 0 2 -4 4 -10 4 -5 0 -10 -5 -10 -11z"/> <path d="M1401 420 c0 -8 4 -22 9 -30 12 -18 12 -2 0 25 -6 13 -9 15 -9 5z"/> <path d="M2007 411 c-4 -17 -3 -21 5 -13 5 5 8 16 6 23 -3 8 -7 3 -11 -10z"/> <path d="M1275 401 c-3 -5 -2 -12 3 -15 5 -3 9 1 9 9 0 17 -3 19 -12 6z"/> <path d="M243 330 c0 -53 2 -60 10 -37 5 17 5 42 -1 65 -8 34 -9 32 -9 -28z"/> <path d="M2011 354 c0 -11 3 -14 6 -6 3 7 2 16 -1 19 -3 4 -6 -2 -5 -13z"/> <path d="M386 345 c-3 -9 -6 -24 -5 -33 0 -9 5 -4 10 12 9 32 6 48 -5 21z"/> <path d="M1216 345 c-9 -26 -7 -32 5 -12 6 10 9 21 6 23 -2 3 -7 -2 -11 -11z"/> <path d="M1078 333 c7 -3 16 -2 19 1 4 3 -2 6 -13 5 -11 0 -14 -3 -6 -6z"/> <path d="M748 303 c5 -21 7 -23 10 -9 2 10 0 22 -6 28 -6 6 -7 0 -4 -19z"/> <path d="M1966 286 c10 -8 21 -12 24 -10 5 6 -21 24 -34 24 -6 0 -1 -6 10 -14z"/> <path d="M732 265 c0 -11 4 -31 8 -45 6 -20 8 -21 8 -5 0 11 -4 31 -8 45 -6 20 -8 21 -8 5z"/> <path d="M1690 250 c0 -5 5 -10 11 -10 5 0 7 5 4 10 -3 6 -8 10 -11 10 -2 0 -4 -4 -4 -10z"/> <path d="M378 243 c7 -3 16 -2 19 1 4 3 -2 6 -13 5 -11 0 -14 -3 -6 -6z"/> <path d="M58 233 c34 -2 90 -2 125 0 34 2 6 3 -63 3 -69 0 -97 -1 -62 -3z"/> <path d="M1888 233 c7 -3 16 -2 19 1 4 3 -2 6 -13 5 -11 0 -14 -3 -6 -6z"/> <path d="M2458 233 c34 -2 90 -2 125 0 34 2 6 3 -63 3 -69 0 -97 -1 -62 -3z"/> <path d="M2140 220 c0 -5 5 -10 11 -10 5 0 7 5 4 10 -3 6 -8 10 -11 10 -2 0 -4 -4 -4 -10z"/> <path d="M1189 188 c-2 -13 -1 -61 2 -108 l5 -85 2 108 c2 102 -1 133 -9 85z"/> <path d="M2402 100 l2 -105 3 98 4 97 108 0 109 0 1 -92 c3 -127 11 -125 11 3 l0 104 -120 0 -120 0 2 -105z"/> <path d="M481 98 c2 -115 7 -106 11 20 2 45 0 82 -4 82 -5 0 -7 -46 -7 -102z"/> <path d="M964 100 c0 -58 1 -81 3 -53 2 29 2 77 0 105 -2 29 -3 6 -3 -52z"/> <path d="M1950 185 c-7 -9 -10 -18 -7 -22 4 -3 9 2 13 11 7 19 50 22 57 4 3 -8 6 -6 6 5 1 22 -51 24 -69 2z"/> <path d="M2131 178 c1 -21 2 -22 8 -3 3 11 9 -25 12 -80 l5 -100 2 103 c2 85 -1 102 -13 102 -9 0 -15 -9 -14 -22z"/> <path d="M3093 193 c9 -2 15 -9 12 -14 -4 -5 -1 -9 4 -9 6 0 11 7 11 15 0 9 -9 15 -22 14 -18 -1 -19 -2 -5 -6z"/> <path d="M231 174 c0 -11 3 -14 6 -6 3 7 2 16 -1 19 -3 4 -6 -2 -5 -13z"/> <path d="M305 170 c-3 -5 -1 -10 4 -10 6 0 11 5 11 10 0 6 -2 10 -4 10 -3 0 -8 -4 -11 -10z"/> <path d="M714 90 c0 -52 1 -74 3 -47 2 26 2 68 0 95 -2 26 -3 4 -3 -48z"/> <path d="M1535 170 c3 -5 8 -10 11 -10 2 0 4 5 4 10 0 6 -5 10 -11 10 -5 0 -7 -4 -4 -10z"/> <path d="M1580 170 c0 -5 5 -10 10 -10 6 0 10 5 10 10 0 6 -4 10 -10 10 -5 0 -10 -4 -10 -10z"/> <path d="M3068 173 c7 -3 16 -2 19 1 4 3 -2 6 -13 5 -11 0 -14 -3 -6 -6z"/> <path d="M1922 135 c0 -16 2 -22 5 -12 2 9 2 23 0 30 -3 6 -5 -1 -5 -18z"/> <path d="M3113 125 c0 -22 2 -30 4 -17 2 12 2 30 0 40 -3 9 -5 -1 -4 -23z"/> <path d="M229 118 c-2 -18 -1 -53 2 -78 5 -37 6 -32 7 33 2 79 -3 102 -9 45z"/> <path d="M1440 65 c0 -38 2 -66 5 -64 7 8 9 119 2 126 -4 3 -7 -24 -7 -62z"/> <path d="M1673 55 c0 -33 2 -45 4 -27 2 18 2 45 0 60 -2 15 -4 0 -4 -33z"/> <path d="M1923 50 c0 -30 2 -43 4 -28 2 16 2 40 0 55 -2 16 -4 3 -4 -27z"/> <path d="M3113 40 c0 -25 2 -35 4 -22 2 12 2 32 0 45 -2 12 -4 2 -4 -23z"/> </g> </svg>